Lora-Bold.ufo
<glyph name="numbersign" format="1">
  <advance width="1700"/>
  <unicode hex="0023"/>
  <outline>
    <contour>
      <point x="1241" y="1467" type="line"/>
      <point x="1150" y="1083" type="line"/>
      <point x="715" y="1083" type="line"/>
      <point x="803" y="1467" type="line"/>
      <point x="668" y="1467" type="line"/>
      <point x="577" y="1083" type="line"/>
      <point x="236" y="1083" type="line"/>
      <point x="203" y="961" type="line"/>
      <point x="548" y="961" type="line"/>
      <point x="436" y="487" type="line"/>
      <point x="101" y="487" type="line"/>
      <point x="68" y="365" type="line"/>
      <point x="408" y="365" type="line"/>
      <point x="315" y="-33" type="line"/>
      <point x="462" y="-33" type="line"/>
      <point x="552" y="365" type="line"/>
      <point x="981" y="365" type="line"/>
      <point x="888" y="-33" type="line"/>
      <point x="1036" y="-33" type="line"/>
      <point x="1126" y="365" type="line"/>
      <point x="1463" y="365" type="line"/>
      <point x="1495" y="487" type="line"/>
      <point x="1153" y="487" type="line"/>
      <point x="1260" y="961" type="line"/>
      <point x="1600" y="961" type="line"/>
      <point x="1631" y="1081" type="line"/>
      <point x="1631" y="1083" type="line"/>
      <point x="1288" y="1083" type="line"/>
      <point x="1376" y="1467" type="line"/>
    </contour>
    <contour>
      <point x="1009" y="487" type="line"/>
      <point x="579" y="487" type="line"/>
      <point x="687" y="961" type="line"/>
      <point x="1121" y="961" type="line"/>
    </contour>
  </outline>
</glyph>
<glyph name="dollar" format="1">
  <advance width="1083"/>
  <unicode hex="0024"/>
  <outline>
    <contour>
      <point x="489" y="1706" type="line"/>
      <point x="489" y="1467" type="line"/>
      <point x="203" y="1460"/>
      <point x="102" y="1239"/>
      <point x="102" y="1110" type="curve" smooth="yes"/>
      <point x="102" y="641"/>
      <point x="835" y="680"/>
      <point x="835" y="303" type="curve" smooth="yes"/>
      <point x="835" y="154"/>
      <point x="723" y="48"/>
      <point x="563" y="48" type="curve" smooth="yes"/>
      <point x="346" y="48"/>
      <point x="203" y="154"/>
      <point x="188" y="406" type="curve"/>
      <point x="117" y="406" type="line"/>
      <point x="117" y="-27" type="line"/>
      <point x="227" y="-27" type="line"/>
      <point x="217" y="56" type="line"/>
      <point x="293" y="8"/>
      <point x="405" y="-29"/>
      <point x="500" y="-33" type="curve"/>
      <point x="502" y="-313" type="line"/>
      <point x="608" y="-313" type="line"/>
      <point x="609" y="-33" type="line"/>
      <point x="877" y="-14"/>
      <point x="1008" y="157"/>
      <point x="1008" y="348" type="curve" smooth="yes"/>
      <point x="1008" y="809"/>
      <point x="268" y="790"/>
      <point x="268" y="1147" type="curve" smooth="yes"/>
      <point x="268" y="1267"/>
      <point x="346" y="1388"/>
      <point x="518" y="1388" type="curve" smooth="yes"/>
      <point x="758" y="1388"/>
      <point x="831" y="1216"/>
      <point x="844" y="1019" type="curve"/>
      <point x="919" y="1019" type="line"/>
      <point x="919" y="1467" type="line"/>
      <point x="817" y="1467" type="line"/>
      <point x="825" y="1380" type="line"/>
      <point x="752" y="1435"/>
      <point x="675" y="1458"/>
      <point x="598" y="1466" type="curve"/>
      <point x="600" y="1706" type="line"/>
    </contour>
  </outline>
</glyph>
<glyph name="parenright" format="1">
  <advance width="625"/>
  <unicode hex="0029"/>
  <outline>
    <contour>
      <point x="37" y="1509" type="line"/>
      <point x="248" y="1229"/>
      <point x="346" y="897"/>
      <point x="346" y="512" type="curve" smooth="yes"/>
      <point x="346" y="127"/>
      <point x="248" y="-227"/>
      <point x="37" y="-508" type="curve"/>
      <point x="88" y="-555" type="line"/>
      <point x="291" y="-369"/>
      <point x="553" y="57"/>
      <point x="553" y="512" type="curve" smooth="yes"/>
      <point x="553" y="967"/>
      <point x="291" y="1370"/>
      <point x="88" y="1556" type="curve"/>
    </contour>
  </outline>
</glyph>
<glyph name="plus" format="1">
  <advance width="1055"/>
  <unicode hex="002B"/>
  <outline>
    <contour>
      <point x="461" y="1112" type="line"/>
      <point x="461" y="709" type="line"/>
      <point x="72" y="711" type="line"/>
      <point x="72" y="588" type="line"/>
      <point x="461" y="589" type="line"/>
      <point x="461" y="168" type="line"/>
      <point x="593" y="168" type="line"/>
      <point x="593" y="590" type="line"/>
      <point x="984" y="592" type="line"/>
      <point x="984" y="707" type="line"/>
      <point x="593" y="709" type="line"/>
      <point x="593" y="1112" type="line"/>
    </contour>
  </outline>
</glyph>
<glyph name="period" format="1">
  <advance width="504"/>
  <unicode hex="002E"/>
  <outline>
    <contour>
      <point x="188" y="232"/>
      <point x="131" y="172"/>
      <point x="131" y="98" type="curve" smooth="yes"/>
      <point x="131" y="25"/>
      <point x="186" y="-33"/>
      <point x="250" y="-33" type="curve" smooth="yes"/>
      <point x="313" y="-33"/>
      <point x="370" y="25"/>
      <point x="370" y="98" type="curve" smooth="yes"/>
      <point x="370" y="172"/>
      <point x="319" y="232"/>
      <point x="252" y="232" type="curve" smooth="yes"/>
    </contour>
  </outline>
</glyph>
<glyph name="one" format="1">
  <advance width="745"/>
  <unicode hex="0031"/>
  <outline>
    <contour>
      <point x="437" y="1467" type="line"/>
      <point x="37" y="1169" type="line"/>
      <point x="78" y="1109" type="line"/>
      <point x="324" y="1268" type="line"/>
      <point x="328" y="1268" type="line"/>
      <point x="330" y="301" type="line" smooth="yes"/>
      <point x="330" y="160"/>
      <point x="293" y="74"/>
      <point x="152" y="68" type="curve"/>
      <point x="152" y="0" type="line"/>
      <point x="674" y="0" type="line"/>
      <point x="674" y="90" type="line"/>
      <point x="502" y="82" type="line"/>
      <point x="508" y="121"/>
      <point x="508" y="170"/>
      <point x="508" y="223" type="curve" smooth="yes"/>
      <point x="506" y="1467" type="line"/>
    </contour>
  </outline>
</glyph>
<glyph name="nine" format="1">
  <advance width="1184"/>
  <unicode hex="0039"/>
  <outline>
    <contour>
      <point x="287" y="1467"/>
      <point x="98" y="1259"/>
      <point x="98" y="993" type="curve" smooth="yes"/>
      <point x="98" y="787"/>
      <point x="199" y="537"/>
      <point x="526" y="537" type="curve" smooth="yes"/>
      <point x="687" y="537"/>
      <point x="802" y="617"/>
      <point x="870" y="708" type="curve"/>
      <point x="873" y="474"/>
      <point x="827" y="45"/>
      <point x="516" y="45" type="curve" smooth="yes"/>
      <point x="386" y="45"/>
      <point x="326" y="96"/>
      <point x="308" y="155" type="curve"/>
      <point x="326" y="183"/>
      <point x="335" y="212"/>
      <point x="335" y="239" type="curve" smooth="yes"/>
      <point x="335" y="274"/>
      <point x="309" y="330"/>
      <point x="243" y="327" type="curve" smooth="yes"/>
      <point x="185" y="324"/>
      <point x="154" y="278"/>
      <point x="154" y="220" type="curve" smooth="yes"/>
      <point x="154" y="112"/>
      <point x="258" y="-35"/>
      <point x="526" y="-33" type="curve" smooth="yes"/>
      <point x="993" y="-30"/>
      <point x="1063" y="436"/>
      <point x="1063" y="735" type="curve" smooth="yes"/>
      <point x="1063" y="1149"/>
      <point x="967" y="1467"/>
      <point x="582" y="1467" type="curve" smooth="yes"/>
    </contour>
    <contour>
      <point x="788" y="1388"/>
      <point x="855" y="1110"/>
      <point x="868" y="854" type="curve"/>
      <point x="830" y="735"/>
      <point x="698" y="629"/>
      <point x="569" y="629" type="curve" smooth="yes"/>
      <point x="340" y="629"/>
      <point x="301" y="885"/>
      <point x="301" y="1038" type="curve" smooth="yes"/>
      <point x="301" y="1219"/>
      <point x="391" y="1388"/>
      <point x="567" y="1388" type="curve" smooth="yes"/>
    </contour>
  </outline>
</glyph>
<glyph name="A" format="1">
  <advance width="1282"/>
  <unicode hex="0041"/>
  <outline>
    <contour>
      <point x="608" y="1473" type="line"/>
      <point x="186" y="324" type="line" smooth="yes"/>
      <point x="130" y="172"/>
      <point x="111" y="68"/>
      <point x="-12" y="68" type="curve"/>
      <point x="-12" y="0" type="line"/>
      <point x="371" y="0" type="line"/>
      <point x="371" y="90" type="line"/>
      <point x="211" y="82" type="line"/>
      <point x="230" y="127"/>
      <point x="242" y="158"/>
      <point x="262" y="223" type="curve" smooth="yes"/>
      <point x="282" y="290"/>
      <point x="304" y="358"/>
      <point x="333" y="442" type="curve"/>
      <point x="866" y="454" type="line"/>
      <point x="938" y="262" type="line" smooth="yes"/>
      <point x="967" y="186"/>
      <point x="991" y="72"/>
      <point x="838" y="68" type="curve"/>
      <point x="838" y="0" type="line"/>
      <point x="1307" y="0" type="line"/>
      <point x="1307" y="90" type="line"/>
      <point x="1167" y="82" type="line"/>
      <point x="1171" y="143"/>
      <point x="1137" y="250"/>
      <point x="1114" y="307" type="curve" smooth="yes"/>
      <point x="657" y="1473" type="line"/>
    </contour>
    <contour>
      <point x="692" y="922" type="line"/>
      <point x="838" y="530" type="line"/>
      <point x="364" y="530" type="line"/>
      <point x="401" y="635"/>
      <point x="447" y="766"/>
      <point x="510" y="942" type="curve" smooth="yes"/>
      <point x="596" y="1174" type="line"/>
      <point x="600" y="1174" type="line"/>
    </contour>
    <contour>
      <point x="1154" y="-1" type="move" name="ogonek"/>
    </contour>
    <contour>
      <point x="641" y="1434" type="move" name="top"/>
    </contour>
  </outline>
</glyph>
<glyph name="B" format="1">
  <advance width="1274"/>
  <unicode hex="0042"/>
  <outline>
    <contour>
      <point x="412" y="1438"/>
      <point x="263" y="1436"/>
      <point x="113" y="1434" type="curve"/>
      <point x="113" y="1343" type="line"/>
      <point x="261" y="1352" type="line"/>
      <point x="256" y="1317"/>
      <point x="254" y="1264"/>
      <point x="254" y="1190" type="curve" smooth="yes"/>
      <point x="254" y="330" type="line" smooth="yes"/>
      <point x="254" y="176"/>
      <point x="267" y="72"/>
      <point x="113" y="68" type="curve"/>
      <point x="113" y="0" type="line"/>
      <point x="711" y="0" type="line" smooth="yes"/>
      <point x="988" y="0"/>
      <point x="1194" y="150"/>
      <point x="1194" y="401" type="curve" smooth="yes"/>
      <point x="1194" y="612"/>
      <point x="1041" y="766"/>
      <point x="740" y="766" type="curve"/>
      <point x="740" y="770" type="line"/>
      <point x="965" y="811"/>
      <point x="1076" y="954"/>
      <point x="1078" y="1087" type="curve" smooth="yes"/>
      <point x="1082" y="1329"/>
      <point x="893" y="1438"/>
      <point x="576" y="1438" type="curve" smooth="yes"/>
    </contour>
    <contour>
      <point x="830" y="711"/>
      <point x="996" y="639"/>
      <point x="996" y="389" type="curve" smooth="yes"/>
      <point x="996" y="184"/>
      <point x="854" y="78"/>
      <point x="643" y="78" type="curve" smooth="yes"/>
      <point x="617" y="78"/>
      <point x="490" y="76"/>
      <point x="426" y="82" type="curve"/>
      <point x="431" y="117"/>
      <point x="433" y="168"/>
      <point x="433" y="242" type="curve" smooth="yes"/>
      <point x="433" y="705" type="line"/>
      <point x="498" y="709"/>
      <point x="562" y="711"/>
      <point x="643" y="711" type="curve" smooth="yes"/>
    </contour>
    <contour>
      <point x="721" y="1364"/>
      <point x="887" y="1319"/>
      <point x="891" y="1098" type="curve" smooth="yes"/>
      <point x="893" y="946"/>
      <point x="816" y="793"/>
      <point x="582" y="788" type="curve" smooth="yes"/>
      <point x="433" y="784" type="line"/>
      <point x="433" y="1165" type="line" smooth="yes"/>
      <point x="433" y="1315"/>
      <point x="453" y="1364"/>
      <point x="586" y="1364" type="curve" smooth="yes"/>
    </contour>
  </outline>
</glyph>
<glyph name="D" format="1">
  <advance width="1526"/>
  <unicode hex="0044"/>
  <outline>
    <contour>
      <point x="113" y="1434" type="line"/>
      <point x="113" y="1343" type="line"/>
      <point x="261" y="1352" type="line"/>
      <point x="256" y="1311"/>
      <point x="254" y="1260"/>
      <point x="254" y="1204" type="curve" smooth="yes"/>
      <point x="254" y="319" type="line" smooth="yes"/>
      <point x="254" y="174"/>
      <point x="267" y="74"/>
      <point x="113" y="68" type="curve"/>
      <point x="113" y="0" type="line"/>
      <point x="652" y="0" type="line" smooth="yes"/>
      <point x="1166" y="0"/>
      <point x="1432" y="338"/>
      <point x="1432" y="715" type="curve" smooth="yes"/>
      <point x="1432" y="1208"/>
      <point x="1090" y="1438"/>
      <point x="596" y="1436" type="curve" smooth="yes"/>
    </contour>
    <contour>
      <point x="1024" y="1360"/>
      <point x="1231" y="1110"/>
      <point x="1231" y="723" type="curve" smooth="yes"/>
      <point x="1231" y="356"/>
      <point x="998" y="78"/>
      <point x="646" y="78" type="curve" smooth="yes"/>
      <point x="629" y="78"/>
      <point x="535" y="76"/>
      <point x="426" y="82" type="curve"/>
      <point x="431" y="117"/>
      <point x="433" y="168"/>
      <point x="433" y="242" type="curve" smooth="yes"/>
      <point x="433" y="1114" type="line" smooth="yes"/>
      <point x="433" y="1260"/>
      <point x="420" y="1360"/>
      <point x="574" y="1360" type="curve" smooth="yes"/>
    </contour>
    <contour>
      <point x="763" y="717" type="move" name="center"/>
    </contour>
    <contour>
      <point x="709" y="1434" type="move" name="top"/>
    </contour>
  </outline>
</glyph>
<glyph name="I" format="1">
  <advance width="686"/>
  <unicode hex="0049"/>
  <outline>
    <contour>
      <point x="113" y="1434" type="line"/>
      <point x="113" y="1343" type="line"/>
      <point x="261" y="1352" type="line"/>
      <point x="256" y="1311"/>
      <point x="254" y="1260"/>
      <point x="254" y="1204" type="curve" smooth="yes"/>
      <point x="254" y="319" type="line" smooth="yes"/>
      <point x="254" y="174"/>
      <point x="267" y="74"/>
      <point x="113" y="68" type="curve"/>
      <point x="113" y="0" type="line"/>
      <point x="574" y="0" type="line"/>
      <point x="574" y="90" type="line"/>
      <point x="426" y="82" type="line"/>
      <point x="431" y="117"/>
      <point x="433" y="170"/>
      <point x="433" y="244" type="curve" smooth="yes"/>
      <point x="433" y="1114" type="line" smooth="yes"/>
      <point x="433" y="1260"/>
      <point x="420" y="1360"/>
      <point x="574" y="1366" type="curve"/>
      <point x="574" y="1434" type="line"/>
    </contour>
    <contour>
      <point x="561" y="-1" type="move" name="ogonek"/>
    </contour>
    <contour>
      <point x="350" y="1434" type="move" name="top"/>
    </contour>
  </outline>
</glyph>
<glyph name="K" format="1">
  <advance width="1399"/>
  <unicode hex="004B"/>
  <outline>
    <contour>
      <point x="863" y="1434" type="line"/>
      <point x="863" y="1350" type="line"/>
      <point x="988" y="1354" type="line"/>
      <point x="931" y="1309"/>
      <point x="876" y="1235"/>
      <point x="842" y="1182" type="curve" smooth="yes"/>
      <point x="586" y="778" type="line"/>
      <point x="433" y="778" type="line"/>
      <point x="433" y="1114" type="line" smooth="yes"/>
      <point x="433" y="1260"/>
      <point x="420" y="1360"/>
      <point x="574" y="1366" type="curve"/>
      <point x="574" y="1434" type="line"/>
      <point x="113" y="1434" type="line"/>
      <point x="113" y="1343" type="line"/>
      <point x="261" y="1352" type="line"/>
      <point x="256" y="1311"/>
      <point x="254" y="1260"/>
      <point x="254" y="1204" type="curve" smooth="yes"/>
      <point x="254" y="319" type="line" smooth="yes"/>
      <point x="254" y="174"/>
      <point x="267" y="74"/>
      <point x="113" y="68" type="curve"/>
      <point x="113" y="0" type="line"/>
      <point x="574" y="0" type="line"/>
      <point x="574" y="90" type="line"/>
      <point x="426" y="82" type="line"/>
      <point x="431" y="117"/>
      <point x="433" y="170"/>
      <point x="433" y="244" type="curve" smooth="yes"/>
      <point x="433" y="696" type="line"/>
      <point x="533" y="698" type="line"/>
      <point x="582" y="668"/>
      <point x="635" y="600"/>
      <point x="687" y="532" type="curve" smooth="yes"/>
      <point x="932" y="201" type="line" smooth="yes"/>
      <point x="1012" y="96"/>
      <point x="1098" y="0"/>
      <point x="1139" y="0" type="curve" smooth="yes"/>
      <point x="1389" y="0" type="line"/>
      <point x="1389" y="68" type="line"/>
      <point x="1301" y="68"/>
      <point x="1244" y="84"/>
      <point x="1088" y="291" type="curve" smooth="yes"/>
      <point x="859" y="596" type="line" smooth="yes"/>
      <point x="809" y="659"/>
      <point x="766" y="723"/>
      <point x="689" y="770" type="curve"/>
      <point x="889" y="1090" type="line" smooth="yes"/>
      <point x="1029" y="1313"/>
      <point x="1131" y="1352"/>
      <point x="1303" y="1366" type="curve"/>
      <point x="1303" y="1434" type="line"/>
    </contour>
    <contour>
      <point x="711" y="1434" type="move" name="top"/>
    </contour>
    <contour>
      <point x="775" y="0" type="move" name="bottom"/>
    </contour>
  </outline>
</glyph>
<glyph name="M" format="1">
  <advance width="1880"/>
  <unicode hex="004D"/>
  <outline>
    <contour>
      <point x="1442" y="1434" type="line"/>
      <point x="1315" y="1112"/>
      <point x="1182" y="813"/>
      <point x="1063" y="514" type="curve" smooth="yes"/>
      <point x="1034" y="440"/>
      <point x="989" y="324"/>
      <point x="958" y="250" type="curve"/>
      <point x="954" y="250" type="line"/>
      <point x="780" y="647"/>
      <point x="631" y="1006"/>
      <point x="442" y="1434" type="curve"/>
      <point x="129" y="1434" type="line"/>
      <point x="129" y="1346" type="line"/>
      <point x="276" y="1351" type="line"/>
      <point x="231" y="256" type="line" smooth="yes"/>
      <point x="227" y="156"/>
      <point x="217" y="70"/>
      <point x="90" y="68" type="curve"/>
      <point x="90" y="0" type="line"/>
      <point x="481" y="0" type="line"/>
      <point x="481" y="90" type="line"/>
      <point x="327" y="82" type="line"/>
      <point x="334" y="133"/>
      <point x="334" y="195"/>
      <point x="335" y="256" type="curve" smooth="yes"/>
      <point x="340" y="532"/>
      <point x="352" y="915"/>
      <point x="358" y="1112" type="curve" smooth="yes"/>
      <point x="360" y="1202" type="line"/>
      <point x="521" y="777"/>
      <point x="706" y="381"/>
      <point x="885" y="-20" type="curve"/>
      <point x="946" y="-20" type="line"/>
      <point x="1407" y="1118" type="line" smooth="yes"/>
      <point x="1416" y="1142"/>
      <point x="1426" y="1164"/>
      <point x="1434" y="1184" type="curve"/>
      <point x="1487" y="311" type="line" smooth="yes"/>
      <point x="1495" y="156"/>
      <point x="1478" y="72"/>
      <point x="1351" y="68" type="curve"/>
      <point x="1351" y="0" type="line"/>
      <point x="1810" y="0" type="line"/>
      <point x="1810" y="90" type="line"/>
      <point x="1661" y="83" type="line"/>
      <point x="1661" y="119"/>
      <point x="1660" y="163"/>
      <point x="1657" y="211" type="curve" smooth="yes"/>
      <point x="1603" y="1143" type="line" smooth="yes"/>
      <point x="1593" y="1311"/>
      <point x="1642" y="1368"/>
      <point x="1745" y="1366" type="curve"/>
      <point x="1745" y="1434" type="line"/>
    </contour>
  </outline>
</glyph>
<glyph name="S" format="1">
  <advance width="1161"/>
  <unicode hex="0053"/>
  <outline>
    <contour>
      <point x="207" y="1467"/>
      <point x="123" y="1245"/>
      <point x="123" y="1106" type="curve" smooth="yes"/>
      <point x="123" y="623"/>
      <point x="895" y="707"/>
      <point x="895" y="309" type="curve" smooth="yes"/>
      <point x="895" y="143"/>
      <point x="760" y="53"/>
      <point x="600" y="53" type="curve" smooth="yes"/>
      <point x="383" y="53"/>
      <point x="213" y="178"/>
      <point x="198" y="420" type="curve"/>
      <point x="119" y="420" type="line"/>
      <point x="131" y="-16" type="line"/>
      <point x="237" y="-16" type="line"/>
      <point x="227" y="72" type="line"/>
      <point x="328" y="2"/>
      <point x="469" y="-33"/>
      <point x="592" y="-33" type="curve" smooth="yes"/>
      <point x="897" y="-33"/>
      <point x="1071" y="129"/>
      <point x="1071" y="356" type="curve" smooth="yes"/>
      <point x="1071" y="842"/>
      <point x="291" y="770"/>
      <point x="291" y="1145" type="curve" smooth="yes"/>
      <point x="291" y="1274"/>
      <point x="383" y="1385"/>
      <point x="553" y="1385" type="curve" smooth="yes"/>
      <point x="792" y="1385"/>
      <point x="905" y="1197"/>
      <point x="917" y="1000" type="curve"/>
      <point x="991" y="1000" type="line"/>
      <point x="991" y="1449" type="line"/>
      <point x="887" y="1449" type="line"/>
      <point x="895" y="1361" type="line"/>
      <point x="783" y="1443"/>
      <point x="644" y="1467"/>
      <point x="538" y="1467" type="curve" smooth="yes"/>
    </contour>
    <contour>
      <point x="558" y="1434" type="move" name="top"/>
    </contour>
    <contour>
      <point x="622" y="0" type="move" name="bottom"/>
    </contour>
  </outline>
</glyph>
<glyph name="Y" format="1">
  <advance width="1298"/>
  <unicode hex="0059"/>
  <outline>
    <contour>
      <point x="901" y="1434" type="line"/>
      <point x="901" y="1343" type="line"/>
      <point x="1063" y="1350" type="line"/>
      <point x="1024" y="1307"/>
      <point x="985" y="1233"/>
      <point x="965" y="1194" type="curve" smooth="yes"/>
      <point x="877" y="1028"/>
      <point x="799" y="883"/>
      <point x="703" y="696" type="curve"/>
      <point x="699" y="696" type="line"/>
      <point x="582" y="860"/>
      <point x="510" y="981"/>
      <point x="408" y="1143" type="curve" smooth="yes"/>
      <point x="326" y="1274"/>
      <point x="328" y="1366"/>
      <point x="516" y="1366" type="curve"/>
      <point x="516" y="1434" type="line"/>
      <point x="-12" y="1434" type="line"/>
      <point x="-12" y="1343" type="line"/>
      <point x="115" y="1348" type="line"/>
      <point x="125" y="1296"/>
      <point x="156" y="1225"/>
      <point x="226" y="1116" type="curve" smooth="yes"/>
      <point x="581" y="553" type="line"/>
      <point x="580" y="319" type="line" smooth="yes"/>
      <point x="580" y="180"/>
      <point x="594" y="74"/>
      <point x="441" y="68" type="curve"/>
      <point x="441" y="0" type="line"/>
      <point x="922" y="0" type="line"/>
      <point x="922" y="90" type="line"/>
      <point x="752" y="82" type="line"/>
      <point x="756" y="117"/>
      <point x="758" y="170"/>
      <point x="758" y="244" type="curve" smooth="yes"/>
      <point x="756" y="245"/>
      <point x="758" y="514"/>
      <point x="759" y="614" type="curve"/>
      <point x="839" y="765"/>
      <point x="923" y="925"/>
      <point x="1018" y="1102" type="curve" smooth="yes"/>
      <point x="1112" y="1276"/>
      <point x="1184" y="1358"/>
      <point x="1319" y="1366" type="curve"/>
      <point x="1319" y="1434" type="line"/>
    </contour>
    <contour>
      <point x="677" y="1434" type="move" name="top"/>
    </contour>
  </outline>
</glyph>
<glyph name="grave" format="1">
  <advance width="516"/>
  <unicode hex="0060"/>
  <outline>
    <contour>
      <point x="102" y="1536"/>
      <point x="63" y="1483"/>
      <point x="137" y="1405" type="curve" smooth="yes"/>
      <point x="367" y="1188" type="line"/>
      <point x="424" y="1235" type="line"/>
      <point x="252" y="1511" type="line" smooth="yes"/>
      <point x="190" y="1599"/>
      <point x="129" y="1559"/>
      <point x="119" y="1550" type="curve" smooth="yes"/>
    </contour>
    <contour>
      <point x="259" y="1024" type="move" name="_top"/>
    </contour>
  </outline>
</glyph>
<glyph name="a" format="1">
  <advance width="1057"/>
  <unicode hex="0061"/>
  <outline>
    <contour>
      <point x="302" y="1057"/>
      <point x="132" y="948"/>
      <point x="132" y="811" type="curve" smooth="yes"/>
      <point x="132" y="756"/>
      <point x="162" y="711"/>
      <point x="219" y="710" type="curve" smooth="yes"/>
      <point x="287" y="708"/>
      <point x="311" y="764"/>
      <point x="311" y="797" type="curve" smooth="yes"/>
      <point x="311" y="822"/>
      <point x="305" y="851"/>
      <point x="285" y="874" type="curve"/>
      <point x="324" y="952"/>
      <point x="418" y="984"/>
      <point x="498" y="982" type="curve" smooth="yes"/>
      <point x="676" y="976"/>
      <point x="695" y="840"/>
      <point x="695" y="699" type="curve" smooth="yes"/>
      <point x="695" y="571" type="line"/>
      <point x="421" y="576"/>
      <point x="70" y="463"/>
      <point x="70" y="210" type="curve" smooth="yes"/>
      <point x="70" y="73"/>
      <point x="170" y="-33"/>
      <point x="376" y="-33" type="curve" smooth="yes"/>
      <point x="497" y="-33"/>
      <point x="607" y="25"/>
      <point x="699" y="116" type="curve"/>
      <point x="702" y="78"/>
      <point x="705" y="47"/>
      <point x="713" y="0" type="curve"/>
      <point x="1006" y="0" type="line"/>
      <point x="1006" y="86" type="line"/>
      <point x="861" y="78" type="line"/>
      <point x="867" y="133"/>
      <point x="869" y="174"/>
      <point x="869" y="217" type="curve" smooth="yes"/>
      <point x="871" y="677" type="line" smooth="yes"/>
      <point x="873" y="941"/>
      <point x="766" y="1057"/>
      <point x="537" y="1057" type="curve" smooth="yes"/>
    </contour>
    <contour>
      <point x="694" y="406"/>
      <point x="693" y="321"/>
      <point x="693" y="310" type="curve" smooth="yes"/>
      <point x="693" y="271"/>
      <point x="693" y="235"/>
      <point x="694" y="204" type="curve"/>
      <point x="612" y="128"/>
      <point x="534" y="84"/>
      <point x="424" y="84" type="curve" smooth="yes"/>
      <point x="339" y="84"/>
      <point x="269" y="134"/>
      <point x="265" y="235" type="curve" smooth="yes"/>
      <point x="258" y="428"/>
      <point x="506" y="495"/>
      <point x="694" y="501" type="curve"/>
    </contour>
    <contour>
      <point x="961" y="10" type="move" name="ogonek"/>
    </contour>
    <contour>
      <point x="514" y="1024" type="move" name="top"/>
    </contour>
  </outline>
</glyph>
<glyph name="c" format="1">
  <advance width="1090"/>
  <unicode hex="0063"/>
  <outline>
    <contour>
      <point x="301" y="1057"/>
      <point x="84" y="777"/>
      <point x="84" y="494" type="curve" smooth="yes"/>
      <point x="84" y="161"/>
      <point x="313" y="-33"/>
      <point x="590" y="-33" type="curve" smooth="yes"/>
      <point x="729" y="-33"/>
      <point x="911" y="39"/>
      <point x="1020" y="209" type="curve"/>
      <point x="967" y="250" type="line"/>
      <point x="901" y="152"/>
      <point x="772" y="74"/>
      <point x="645" y="74" type="curve" smooth="yes"/>
      <point x="434" y="74"/>
      <point x="293" y="271"/>
      <point x="293" y="544" type="curve" smooth="yes"/>
      <point x="293" y="828"/>
      <point x="436" y="981"/>
      <point x="623" y="981" type="curve" smooth="yes"/>
      <point x="680" y="981"/>
      <point x="802" y="967"/>
      <point x="838" y="871" type="curve"/>
      <point x="814" y="846"/>
      <point x="807" y="815"/>
      <point x="807" y="788" type="curve" smooth="yes"/>
      <point x="807" y="753"/>
      <point x="831" y="694"/>
      <point x="902" y="696" type="curve" smooth="yes"/>
      <point x="963" y="697"/>
      <point x="997" y="746"/>
      <point x="997" y="804" type="curve" smooth="yes"/>
      <point x="997" y="937"/>
      <point x="846" y="1057"/>
      <point x="618" y="1057" type="curve" smooth="yes"/>
    </contour>
    <contour>
      <point x="597" y="1024" type="move" name="top"/>
    </contour>
    <contour>
      <point x="700" y="0" type="move" name="bottom"/>
    </contour>
  </outline>
</glyph>
<glyph name="k" format="1">
  <advance width="1100"/>
  <unicode hex="006B"/>
  <outline>
    <contour>
      <point x="307" y="1546" type="line"/>
      <point x="276" y="1518"/>
      <point x="233" y="1491"/>
      <point x="53" y="1491" type="curve"/>
      <point x="53" y="1405" type="line"/>
      <point x="198" y="1413" type="line"/>
      <point x="192" y="1358"/>
      <point x="192" y="1323"/>
      <point x="192" y="1280" type="curve" smooth="yes"/>
      <point x="192" y="350"/>
      <point x="190" y="313"/>
      <point x="190" y="311" type="curve" smooth="yes"/>
      <point x="190" y="164"/>
      <point x="196" y="61"/>
      <point x="71" y="61" type="curve"/>
      <point x="71" y="0" type="line"/>
      <point x="489" y="0" type="line"/>
      <point x="489" y="84" type="line"/>
      <point x="358" y="78" type="line"/>
      <point x="366" y="125"/>
      <point x="366" y="162"/>
      <point x="366" y="217" type="curve" smooth="yes"/>
      <point x="366" y="498" type="line"/>
      <point x="450" y="502" type="line"/>
      <point x="503" y="451"/>
      <point x="575" y="339"/>
      <point x="683" y="193" type="curve" smooth="yes"/>
      <point x="757" y="95"/>
      <point x="824" y="0"/>
      <point x="899" y="0" type="curve" smooth="yes"/>
      <point x="1085" y="0" type="line"/>
      <point x="1085" y="61" type="line"/>
      <point x="991" y="61"/>
      <point x="862" y="250"/>
      <point x="837" y="283" type="curve" smooth="yes"/>
      <point x="692" y="469" type="line" smooth="yes"/>
      <point x="654" y="517"/>
      <point x="618" y="555"/>
      <point x="565" y="580" type="curve"/>
      <point x="724" y="748" type="line" smooth="yes"/>
      <point x="798" y="823"/>
      <point x="913" y="948"/>
      <point x="1052" y="963" type="curve"/>
      <point x="1052" y="1024" type="line"/>
      <point x="679" y="1024" type="line"/>
      <point x="679" y="942" type="line"/>
      <point x="819" y="948" type="line"/>
      <point x="780" y="924"/>
      <point x="743" y="887"/>
      <point x="698" y="840" type="curve" smooth="yes"/>
      <point x="448" y="578" type="line"/>
      <point x="366" y="578" type="line"/>
      <point x="366" y="1546" type="line"/>
    </contour>
    <contour>
      <point x="550" y="0" type="move" name="bottom"/>
    </contour>
  </outline>
</glyph>
<glyph name="m" format="1">
  <advance width="1831"/>
  <unicode hex="006D"/>
  <outline>
    <contour>
      <point x="1187" y="1057"/>
      <point x="1056" y="996"/>
      <point x="965" y="919" type="curve"/>
      <point x="913" y="1003"/>
      <point x="822" y="1057"/>
      <point x="684" y="1057" type="curve" smooth="yes"/>
      <point x="578" y="1057"/>
      <point x="465" y="1005"/>
      <point x="383" y="935" type="curve"/>
      <point x="381" y="984"/>
      <point x="378" y="1017"/>
      <point x="375" y="1044" type="curve"/>
      <point x="316" y="1044" type="line"/>
      <point x="285" y="1016"/>
      <point x="254" y="989"/>
      <point x="74" y="989" type="curve"/>
      <point x="74" y="903" type="line"/>
      <point x="219" y="911" type="line"/>
      <point x="211" y="864"/>
      <point x="211" y="821"/>
      <point x="211" y="778" type="curve" smooth="yes"/>
      <point x="211" y="311" type="line" smooth="yes"/>
      <point x="211" y="164"/>
      <point x="215" y="61"/>
      <point x="90" y="61" type="curve"/>
      <point x="90" y="0" type="line"/>
      <point x="508" y="0" type="line"/>
      <point x="508" y="84" type="line"/>
      <point x="379" y="78" type="line"/>
      <point x="387" y="125"/>
      <point x="387" y="162"/>
      <point x="387" y="217" type="curve" smooth="yes"/>
      <point x="387" y="744" type="line" smooth="yes"/>
      <point x="387" y="785"/>
      <point x="386" y="822"/>
      <point x="386" y="854" type="curve"/>
      <point x="443" y="912"/>
      <point x="528" y="952"/>
      <point x="615" y="953" type="curve" smooth="yes"/>
      <point x="776" y="955"/>
      <point x="842" y="832"/>
      <point x="840" y="597" type="curve" smooth="yes"/>
      <point x="838" y="311" type="line" smooth="yes"/>
      <point x="836" y="164"/>
      <point x="842" y="61"/>
      <point x="717" y="61" type="curve"/>
      <point x="717" y="0" type="line"/>
      <point x="1135" y="0" type="line"/>
      <point x="1135" y="84" type="line"/>
      <point x="1006" y="78" type="line"/>
      <point x="1014" y="125"/>
      <point x="1014" y="162"/>
      <point x="1014" y="217" type="curve" smooth="yes"/>
      <point x="1018" y="699" type="line" smooth="yes"/>
      <point x="1018" y="752"/>
      <point x="1011" y="802"/>
      <point x="997" y="848" type="curve"/>
      <point x="1059" y="905"/>
      <point x="1148" y="948"/>
      <point x="1235" y="949" type="curve" smooth="yes"/>
      <point x="1397" y="951"/>
      <point x="1469" y="832"/>
      <point x="1469" y="597" type="curve" smooth="yes"/>
      <point x="1469" y="311" type="line" smooth="yes"/>
      <point x="1469" y="164"/>
      <point x="1473" y="61"/>
      <point x="1348" y="61" type="curve"/>
      <point x="1348" y="0" type="line"/>
      <point x="1766" y="0" type="line"/>
      <point x="1766" y="84" type="line"/>
      <point x="1637" y="78" type="line"/>
      <point x="1645" y="125"/>
      <point x="1645" y="162"/>
      <point x="1645" y="217" type="curve" smooth="yes"/>
      <point x="1647" y="599" type="line" smooth="yes"/>
      <point x="1653" y="922"/>
      <point x="1542" y="1057"/>
      <point x="1305" y="1057" type="curve" smooth="yes"/>
    </contour>
  </outline>
</glyph>
<glyph name="n" format="1">
  <advance width="1243"/>
  <unicode hex="006E"/>
  <outline>
    <contour>
      <point x="601" y="1057"/>
      <point x="473" y="997"/>
      <point x="386" y="920" type="curve"/>
      <point x="383" y="976"/>
      <point x="380" y="1014"/>
      <point x="377" y="1044" type="curve"/>
      <point x="318" y="1044" type="line"/>
      <point x="287" y="1016"/>
      <point x="256" y="989"/>
      <point x="76" y="989" type="curve"/>
      <point x="76" y="903" type="line"/>
      <point x="221" y="911" type="line"/>
      <point x="213" y="864"/>
      <point x="213" y="821"/>
      <point x="213" y="778" type="curve" smooth="yes"/>
      <point x="211" y="311" type="line" smooth="yes"/>
      <point x="209" y="164"/>
      <point x="215" y="61"/>
      <point x="90" y="61" type="curve"/>
      <point x="90" y="0" type="line"/>
      <point x="508" y="0" type="line"/>
      <point x="508" y="84" type="line"/>
      <point x="379" y="78" type="line"/>
      <point x="387" y="125"/>
      <point x="387" y="162"/>
      <point x="387" y="217" type="curve" smooth="yes"/>
      <point x="389" y="740" type="line" smooth="yes"/>
      <point x="389" y="768"/>
      <point x="389" y="796"/>
      <point x="388" y="820" type="curve"/>
      <point x="448" y="894"/>
      <point x="550" y="951"/>
      <point x="649" y="953" type="curve" smooth="yes"/>
      <point x="811" y="955"/>
      <point x="883" y="832"/>
      <point x="885" y="597" type="curve" smooth="yes"/>
      <point x="885" y="311" type="line" smooth="yes"/>
      <point x="885" y="164"/>
      <point x="889" y="61"/>
      <point x="764" y="61" type="curve"/>
      <point x="764" y="0" type="line"/>
      <point x="1182" y="0" type="line"/>
      <point x="1182" y="84" type="line"/>
      <point x="1053" y="78" type="line"/>
      <point x="1061" y="125"/>
      <point x="1061" y="162"/>
      <point x="1061" y="217" type="curve" smooth="yes"/>
      <point x="1061" y="599" type="line" smooth="yes"/>
      <point x="1061" y="912"/>
      <point x="957" y="1057"/>
      <point x="719" y="1057" type="curve" smooth="yes"/>
    </contour>
    <contour>
      <point x="653" y="1024" type="move" name="top"/>
    </contour>
    <contour>
      <point x="622" y="0" type="move" name="bottom"/>
    </contour>
  </outline>
</glyph>
<glyph name="r" format="1">
  <advance width="887"/>
  <unicode hex="0072"/>
  <outline>
    <contour>
      <point x="582" y="1057"/>
      <point x="447" y="943"/>
      <point x="385" y="842" type="curve"/>
      <point x="383" y="941"/>
      <point x="379" y="1001"/>
      <point x="375" y="1044" type="curve"/>
      <point x="316" y="1044" type="line"/>
      <point x="285" y="1016"/>
      <point x="254" y="989"/>
      <point x="137" y="989" type="curve" smooth="yes"/>
      <point x="74" y="989" type="line"/>
      <point x="74" y="905" type="line"/>
      <point x="219" y="911" type="line"/>
      <point x="211" y="864"/>
      <point x="211" y="822"/>
      <point x="211" y="779" type="curve" smooth="yes"/>
      <point x="211" y="311" type="line" smooth="yes"/>
      <point x="211" y="164"/>
      <point x="215" y="61"/>
      <point x="90" y="61" type="curve"/>
      <point x="90" y="0" type="line"/>
      <point x="510" y="0" type="line"/>
      <point x="510" y="84" type="line"/>
      <point x="381" y="78" type="line"/>
      <point x="389" y="125"/>
      <point x="389" y="162"/>
      <point x="389" y="217" type="curve" smooth="yes"/>
      <point x="387" y="720" type="line"/>
      <point x="459" y="855"/>
      <point x="574" y="949"/>
      <point x="678" y="945" type="curve"/>
      <point x="670" y="885"/>
      <point x="710" y="831"/>
      <point x="771" y="830" type="curve" smooth="yes"/>
      <point x="844" y="828"/>
      <point x="873" y="892"/>
      <point x="873" y="928" type="curve" smooth="yes"/>
      <point x="873" y="1018"/>
      <point x="805" y="1057"/>
      <point x="729" y="1057" type="curve" smooth="yes"/>
    </contour>
    <contour>
      <point x="523" y="1024" type="move" name="top"/>
    </contour>
    <contour>
      <point x="444" y="0" type="move" name="bottom"/>
    </contour>
  </outline>
</glyph>
<glyph name="t" format="1">
  <advance width="793"/>
  <unicode hex="0074"/>
  <outline>
    <contour>
      <point x="311" y="1311" type="line"/>
      <point x="276" y="1194"/>
      <point x="188" y="1026"/>
      <point x="43" y="1024" type="curve"/>
      <point x="43" y="936" type="line"/>
      <point x="200" y="937" type="line"/>
      <point x="196" y="345" type="line" smooth="yes"/>
      <point x="194" y="16"/>
      <point x="352" y="-33"/>
      <point x="475" y="-33" type="curve" smooth="yes"/>
      <point x="544" y="-33"/>
      <point x="663" y="-19"/>
      <point x="784" y="161" type="curve"/>
      <point x="729" y="206" type="line"/>
      <point x="676" y="128"/>
      <point x="602" y="83"/>
      <point x="532" y="83" type="curve" smooth="yes"/>
      <point x="413" y="83"/>
      <point x="377" y="184"/>
      <point x="377" y="370" type="curve" smooth="yes"/>
      <point x="377" y="373"/>
      <point x="378" y="407"/>
      <point x="380" y="940" type="curve"/>
      <point x="725" y="944" type="line"/>
      <point x="725" y="1024" type="line"/>
      <point x="380" y="1024" type="line"/>
      <point x="380" y="1108"/>
      <point x="381" y="1202"/>
      <point x="381" y="1311" type="curve"/>
    </contour>
    <contour>
      <point x="397" y="512" type="move" name="center"/>
    </contour>
    <contour>
      <point x="518" y="0" type="move" name="bottom"/>
    </contour>
  </outline>
</glyph>
<glyph name="w" format="1">
  <advance width="1640"/>
  <unicode hex="0077"/>
  <outline>
    <contour>
      <point x="1282" y="1024" type="line"/>
      <point x="1282" y="940" type="line"/>
      <point x="1401" y="947" type="line"/>
      <point x="1376" y="916"/>
      <point x="1358" y="864"/>
      <point x="1339" y="809" type="curve" smooth="yes"/>
      <point x="1143" y="242" type="line"/>
      <point x="870" y="1024" type="line"/>
      <point x="786" y="1024" type="line"/>
      <point x="729" y="846"/>
      <point x="621" y="529"/>
      <point x="529" y="257" type="curve"/>
      <point x="368" y="741" type="line" smooth="yes"/>
      <point x="324" y="872"/>
      <point x="323" y="958"/>
      <point x="446" y="963" type="curve"/>
      <point x="446" y="1024" type="line"/>
      <point x="12" y="1024" type="line"/>
      <point x="12" y="940" type="line"/>
      <point x="121" y="946" type="line"/>
      <point x="128" y="914"/>
      <point x="144" y="866"/>
      <point x="174" y="780" type="curve" smooth="yes"/>
      <point x="442" y="-6" type="line"/>
      <point x="520" y="-6" type="line"/>
      <point x="786" y="769" type="line"/>
      <point x="1054" y="-6" type="line"/>
      <point x="1136" y="-6" type="line"/>
      <point x="1431" y="800" type="line" smooth="yes"/>
      <point x="1467" y="898"/>
      <point x="1497" y="954"/>
      <point x="1638" y="963" type="curve"/>
      <point x="1638" y="1024" type="line"/>
    </contour>
    <contour>
      <point x="820" y="1024" type="move" name="top"/>
    </contour>
  </outline>
</glyph>
<glyph name="x" format="1">
  <advance width="1085"/>
  <unicode hex="0078"/>
  <outline>
    <contour>
      <point x="684" y="1024" type="line"/>
      <point x="684" y="940" type="line"/>
      <point x="825" y="948" type="line"/>
      <point x="796" y="920"/>
      <point x="774" y="889"/>
      <point x="733" y="840" type="curve" smooth="yes"/>
      <point x="547" y="614" type="line"/>
      <point x="428" y="776" type="line" smooth="yes"/>
      <point x="326" y="915"/>
      <point x="344" y="958"/>
      <point x="467" y="963" type="curve"/>
      <point x="467" y="1024" type="line"/>
      <point x="45" y="1024" type="line"/>
      <point x="45" y="940" type="line"/>
      <point x="141" y="945" type="line"/>
      <point x="155" y="907"/>
      <point x="180" y="851"/>
      <point x="245" y="766" type="curve" smooth="yes"/>
      <point x="284" y="715"/>
      <point x="389" y="571"/>
      <point x="448" y="494" type="curve"/>
      <point x="243" y="227" type="line" smooth="yes"/>
      <point x="168" y="129"/>
      <point x="133" y="82"/>
      <point x="49" y="61" type="curve"/>
      <point x="49" y="0" type="line"/>
      <point x="393" y="0" type="line"/>
      <point x="393" y="84" type="line"/>
      <point x="236" y="78" type="line"/>
      <point x="277" y="120"/>
      <point x="288" y="137"/>
      <point x="329" y="192" type="curve" smooth="yes"/>
      <point x="501" y="428" type="line"/>
      <point x="717" y="162" type="line" smooth="yes"/>
      <point x="774" y="90"/>
      <point x="733" y="61"/>
      <point x="667" y="61" type="curve"/>
      <point x="667" y="0" type="line"/>
      <point x="1063" y="0" type="line"/>
      <point x="1063" y="84" type="line"/>
      <point x="970" y="78" type="line"/>
      <point x="940" y="129"/>
      <point x="912" y="164"/>
      <point x="880" y="204" type="curve" smooth="yes"/>
      <point x="598" y="555" type="line"/>
      <point x="755" y="743" type="line" smooth="yes"/>
      <point x="866" y="877"/>
      <point x="907" y="930"/>
      <point x="1020" y="963" type="curve"/>
      <point x="1020" y="1024" type="line"/>
    </contour>
  </outline>
</glyph>
<glyph name="y" format="1">
  <advance width="1081"/>
  <unicode hex="0079"/>
  <outline>
    <contour>
      <point x="752" y="1024" type="line"/>
      <point x="752" y="940" type="line"/>
      <point x="893" y="948" type="line"/>
      <point x="864" y="926"/>
      <point x="823" y="811"/>
      <point x="793" y="721" type="curve" smooth="yes"/>
      <point x="735" y="551"/>
      <point x="678" y="381"/>
      <point x="617" y="207" type="curve"/>
      <point x="377" y="721" type="line" smooth="yes"/>
      <point x="304" y="878"/>
      <point x="309" y="954"/>
      <point x="423" y="962" type="curve" smooth="yes"/>
      <point x="432" y="963" type="line"/>
      <point x="432" y="1024" type="line"/>
      <point x="8" y="1024" type="line"/>
      <point x="8" y="940" type="line"/>
      <point x="107" y="945" type="line"/>
      <point x="116" y="899"/>
      <point x="143" y="816"/>
      <point x="215" y="662" type="curve" smooth="yes"/>
      <point x="535" y="-23" type="line"/>
      <point x="475" y="-188"/>
      <point x="426" y="-313"/>
      <point x="391" y="-372" type="curve" smooth="yes"/>
      <point x="352" y="-438"/>
      <point x="300" y="-464"/>
      <point x="264" y="-448" type="curve"/>
      <point x="266" y="-439"/>
      <point x="267" y="-428"/>
      <point x="267" y="-420" type="curve" smooth="yes"/>
      <point x="267" y="-388"/>
      <point x="247" y="-329"/>
      <point x="182" y="-331" type="curve" smooth="yes"/>
      <point x="128" y="-332"/>
      <point x="94" y="-380"/>
      <point x="94" y="-431" type="curve" smooth="yes"/>
      <point x="94" y="-514"/>
      <point x="163" y="-555"/>
      <point x="248" y="-555" type="curve" smooth="yes"/>
      <point x="430" y="-555"/>
      <point x="503" y="-363"/>
      <point x="627" y="-18" type="curve" smooth="yes"/>
      <point x="883" y="696" type="line" smooth="yes"/>
      <point x="934" y="836"/>
      <point x="971" y="924"/>
      <point x="1073" y="963" type="curve"/>
      <point x="1073" y="1024" type="line"/>
    </contour>
    <contour>
      <point x="588" y="1024" type="move" name="top"/>
    </contour>
  </outline>
</glyph>
<glyph name="asciitilde" format="1">
  <advance width="1188"/>
  <unicode hex="007E"/>
  <outline>
    <contour>
      <point x="291" y="766"/>
      <point x="225" y="727"/>
      <point x="139" y="657" type="curve"/>
      <point x="139" y="528" type="line"/>
      <point x="213" y="582"/>
      <point x="279" y="627"/>
      <point x="391" y="627" type="curve" smooth="yes"/>
      <point x="555" y="627"/>
      <point x="600" y="473"/>
      <point x="805" y="473" type="curve" smooth="yes"/>
      <point x="913" y="473"/>
      <point x="993" y="518"/>
      <point x="1049" y="580" type="curve"/>
      <point x="1049" y="709" type="line"/>
      <point x="979" y="645"/>
      <point x="887" y="604"/>
      <point x="789" y="612" type="curve" smooth="yes"/>
      <point x="643" y="625"/>
      <point x="610" y="766"/>
      <point x="399" y="766" type="curve" smooth="yes"/>
    </contour>
  </outline>
</glyph>
<glyph name="brokenbar" format="1">
  <advance width="498"/>
  <unicode hex="00A6"/>
  <outline>
    <contour>
      <point x="172" y="1556" type="line"/>
      <point x="178" y="789" type="line"/>
      <point x="317" y="789" type="line"/>
      <point x="325" y="1556" type="line"/>
    </contour>
    <contour>
      <point x="172" y="207" type="line"/>
      <point x="178" y="-555" type="line"/>
      <point x="317" y="-555" type="line"/>
      <point x="325" y="207" type="line"/>
    </contour>
  </outline>
</glyph>
<glyph name="ordfeminine" format="1">
  <advance width="838"/>
  <unicode hex="00AA"/>
  <outline>
    <contour>
      <point x="256" y="1467"/>
      <point x="144" y="1372"/>
      <point x="144" y="1278" type="curve" smooth="yes"/>
      <point x="144" y="1239"/>
      <point x="168" y="1207"/>
      <point x="209" y="1206" type="curve" smooth="yes"/>
      <point x="259" y="1205"/>
      <point x="276" y="1245"/>
      <point x="276" y="1270" type="curve" smooth="yes"/>
      <point x="276" y="1290"/>
      <point x="271" y="1306"/>
      <point x="259" y="1320" type="curve"/>
      <point x="276" y="1369"/>
      <point x="336" y="1400"/>
      <point x="389" y="1398" type="curve" smooth="yes"/>
      <point x="504" y="1394"/>
      <point x="512" y="1318"/>
      <point x="512" y="1236" type="curve" smooth="yes"/>
      <point x="512" y="1166" type="line"/>
      <point x="334" y="1168"/>
      <point x="111" y="1095"/>
      <point x="111" y="931" type="curve" smooth="yes"/>
      <point x="111" y="843"/>
      <point x="179" y="779"/>
      <point x="312" y="779" type="curve" smooth="yes"/>
      <point x="397" y="779"/>
      <point x="463" y="815"/>
      <point x="513" y="870" type="curve"/>
      <point x="523" y="827"/>
      <point x="550" y="783"/>
      <point x="623" y="783" type="curve" smooth="yes"/>
      <point x="672" y="783"/>
      <point x="731" y="818"/>
      <point x="754" y="849" type="curve"/>
      <point x="731" y="888" type="line"/>
      <point x="717" y="877"/>
      <point x="705" y="871"/>
      <point x="695" y="871" type="curve" smooth="yes"/>
      <point x="658" y="871"/>
      <point x="637" y="904"/>
      <point x="637" y="994" type="curve" smooth="yes"/>
      <point x="639" y="1222" type="line" smooth="yes"/>
      <point x="641" y="1392"/>
      <point x="557" y="1467"/>
      <point x="410" y="1467" type="curve" smooth="yes"/>
    </contour>
    <contour>
      <point x="510" y="1037"/>
      <point x="508" y="972"/>
      <point x="508" y="941" type="curve"/>
      <point x="455" y="889"/>
      <point x="392" y="858"/>
      <point x="328" y="867" type="curve" smooth="yes"/>
      <point x="305" y="871"/>
      <point x="260" y="890"/>
      <point x="256" y="945" type="curve" smooth="yes"/>
      <point x="247" y="1053"/>
      <point x="385" y="1102"/>
      <point x="511" y="1102" type="curve"/>
    </contour>
  </outline>
</glyph>
<glyph name="logicalnot" format="1">
  <advance width="1212"/>
  <unicode hex="00AC"/>
  <outline>
    <contour>
      <point x="150" y="578" type="line"/>
      <point x="950" y="581" type="line"/>
      <point x="957" y="322" type="line"/>
      <point x="1062" y="322" type="line"/>
      <point x="1062" y="700" type="line"/>
      <point x="150" y="705" type="line"/>
    </contour>
  </outline>
</glyph>
<glyph name="plusminus" format="1">
  <advance width="1180"/>
  <unicode hex="00B1"/>
  <outline>
    <contour>
      <point x="522" y="1057" type="line"/>
      <point x="522" y="735" type="line"/>
      <point x="133" y="737" type="line"/>
      <point x="133" y="614" type="line"/>
      <point x="522" y="615" type="line"/>
      <point x="522" y="276" type="line"/>
      <point x="654" y="276" type="line"/>
      <point x="654" y="616" type="line"/>
      <point x="1045" y="618" type="line"/>
      <point x="1045" y="733" type="line"/>
      <point x="654" y="735" type="line"/>
      <point x="654" y="1057" type="line"/>
    </contour>
    <contour>
      <point x="133" y="112" type="line"/>
      <point x="133" y="6" type="line"/>
      <point x="1045" y="6" type="line"/>
      <point x="1045" y="121" type="line"/>
    </contour>
  </outline>
</glyph>
<glyph name="twosuperior" format="1">
  <advance width="788"/>
  <unicode hex="00B2"/>
  <outline>
    <contour>
      <point x="227" y="1467"/>
      <point x="139" y="1350"/>
      <point x="139" y="1270" type="curve" smooth="yes"/>
      <point x="139" y="1235"/>
      <point x="160" y="1205"/>
      <point x="197" y="1204" type="curve" smooth="yes"/>
      <point x="242" y="1203"/>
      <point x="258" y="1241"/>
      <point x="258" y="1264" type="curve" smooth="yes"/>
      <point x="258" y="1282"/>
      <point x="251" y="1301"/>
      <point x="239" y="1311" type="curve"/>
      <point x="250" y="1354"/>
      <point x="300" y="1393"/>
      <point x="367" y="1393" type="curve" smooth="yes"/>
      <point x="449" y="1393"/>
      <point x="496" y="1334"/>
      <point x="496" y="1246" type="curve" smooth="yes"/>
      <point x="496" y="1188"/>
      <point x="479" y="1102"/>
      <point x="365" y="1008" type="curve" smooth="yes"/>
      <point x="238" y="904"/>
      <point x="125" y="797"/>
      <point x="125" y="627" type="curve"/>
      <point x="649" y="627" type="line"/>
      <point x="657" y="820" type="line"/>
      <point x="606" y="820" type="line"/>
      <point x="606" y="725"/>
      <point x="526" y="735"/>
      <point x="410" y="738" type="curve" smooth="yes"/>
      <point x="237" y="742" type="line"/>
      <point x="254" y="801"/>
      <point x="307" y="861"/>
      <point x="399" y="929" type="curve" smooth="yes"/>
      <point x="608" y="1081"/>
      <point x="639" y="1168"/>
      <point x="639" y="1248" type="curve" smooth="yes"/>
      <point x="639" y="1399"/>
      <point x="520" y="1467"/>
      <point x="393" y="1467" type="curve" smooth="yes"/>
    </contour>
  </outline>
</glyph>
<glyph name="threesuperior" format="1">
  <advance width="758"/>
  <unicode hex="00B3"/>
  <outline>
    <contour>
      <point x="214" y="1467"/>
      <point x="132" y="1353"/>
      <point x="132" y="1279" type="curve" smooth="yes"/>
      <point x="132" y="1244"/>
      <point x="152" y="1213"/>
      <point x="189" y="1212" type="curve" smooth="yes"/>
      <point x="234" y="1211"/>
      <point x="250" y="1249"/>
      <point x="250" y="1272" type="curve" smooth="yes"/>
      <point x="250" y="1289"/>
      <point x="243" y="1307"/>
      <point x="232" y="1317" type="curve"/>
      <point x="240" y="1357"/>
      <point x="281" y="1397"/>
      <point x="347" y="1399" type="curve" smooth="yes"/>
      <point x="449" y="1403"/>
      <point x="480" y="1323"/>
      <point x="480" y="1256" type="curve" smooth="yes"/>
      <point x="480" y="1213"/>
      <point x="468" y="1107"/>
      <point x="310" y="1107" type="curve" smooth="yes"/>
      <point x="286" y="1107" type="line"/>
      <point x="286" y="1042" type="line"/>
      <point x="312" y="1044"/>
      <point x="331" y="1044"/>
      <point x="341" y="1044" type="curve" smooth="yes"/>
      <point x="343" y="1044" type="line" smooth="yes"/>
      <point x="486" y="1043"/>
      <point x="511" y="934"/>
      <point x="511" y="867" type="curve" smooth="yes"/>
      <point x="511" y="783"/>
      <point x="459" y="695"/>
      <point x="352" y="695" type="curve" smooth="yes"/>
      <point x="292" y="695"/>
      <point x="230" y="718"/>
      <point x="222" y="773" type="curve"/>
      <point x="231" y="785"/>
      <point x="238" y="802"/>
      <point x="238" y="817" type="curve" smooth="yes"/>
      <point x="238" y="848"/>
      <point x="221" y="885"/>
      <point x="173" y="883" type="curve" smooth="yes"/>
      <point x="134" y="882"/>
      <point x="111" y="846"/>
      <point x="111" y="808" type="curve" smooth="yes"/>
      <point x="111" y="722"/>
      <point x="194" y="629"/>
      <point x="352" y="625" type="curve" smooth="yes"/>
      <point x="539" y="621"/>
      <point x="650" y="729"/>
      <point x="650" y="867" type="curve" smooth="yes"/>
      <point x="650" y="977"/>
      <point x="578" y="1072"/>
      <point x="436" y="1084" type="curve"/>
      <point x="436" y="1086" type="line"/>
      <point x="551" y="1115"/>
      <point x="609" y="1200"/>
      <point x="609" y="1268" type="curve" smooth="yes"/>
      <point x="609" y="1389"/>
      <point x="515" y="1467"/>
      <point x="374" y="1467" type="curve" smooth="yes"/>
    </contour>
  </outline>
</glyph>
<glyph name="ordmasculine" format="1">
  <advance width="858"/>
  <unicode hex="00BA"/>
  <outline>
    <contour>
      <point x="241" y="1467"/>
      <point x="98" y="1310"/>
      <point x="98" y="1107" type="curve" smooth="yes"/>
      <point x="98" y="916"/>
      <point x="241" y="779"/>
      <point x="429" y="779" type="curve" smooth="yes"/>
      <point x="622" y="779"/>
      <point x="763" y="925"/>
      <point x="761" y="1133" type="curve" smooth="yes"/>
      <point x="759" y="1330"/>
      <point x="622" y="1467"/>
      <point x="434" y="1467" type="curve" smooth="yes"/>
    </contour>
    <contour>
      <point x="563" y="1402"/>
      <point x="618" y="1254"/>
      <point x="618" y="1101" type="curve" smooth="yes"/>
      <point x="618" y="965"/>
      <point x="558" y="855"/>
      <point x="444" y="851" type="curve" smooth="yes"/>
      <point x="309" y="847"/>
      <point x="247" y="986"/>
      <point x="247" y="1144" type="curve" smooth="yes"/>
      <point x="247" y="1285"/>
      <point x="311" y="1393"/>
      <point x="425" y="1398" type="curve" smooth="yes"/>
    </contour>
  </outline>
</glyph>
<glyph name="AE" format="1">
  <advance width="1944"/>
  <unicode hex="00C6"/>
  <outline>
    <contour>
      <point x="742" y="1434" type="line"/>
      <point x="742" y="1343" type="line"/>
      <point x="926" y="1352" type="line"/>
      <point x="926" y="1351" type="line"/>
      <point x="187" y="256" type="line" smooth="yes"/>
      <point x="132" y="174"/>
      <point x="66" y="68"/>
      <point x="-43" y="68" type="curve"/>
      <point x="-43" y="0" type="line"/>
      <point x="340" y="0" type="line"/>
      <point x="340" y="90" type="line"/>
      <point x="184" y="82" type="line"/>
      <point x="425" y="442" type="line"/>
      <point x="924" y="453" type="line"/>
      <point x="924" y="266" type="line" smooth="yes"/>
      <point x="924" y="141"/>
      <point x="906" y="82"/>
      <point x="799" y="74" type="curve"/>
      <point x="783" y="74" type="line"/>
      <point x="783" y="0" type="line"/>
      <point x="1840" y="0" type="line"/>
      <point x="1852" y="399" type="line"/>
      <point x="1782" y="399" type="line"/>
      <point x="1782" y="161"/>
      <point x="1673" y="73"/>
      <point x="1499" y="76" type="curve" smooth="yes"/>
      <point x="1096" y="82" type="line"/>
      <point x="1100" y="117"/>
      <point x="1102" y="168"/>
      <point x="1102" y="242" type="curve" smooth="yes"/>
      <point x="1102" y="703" type="line"/>
      <point x="1256" y="711" type="line"/>
      <point x="1426" y="711"/>
      <point x="1496" y="710"/>
      <point x="1496" y="530" type="curve"/>
      <point x="1563" y="530" type="line"/>
      <point x="1563" y="977" type="line"/>
      <point x="1496" y="977" type="line"/>
      <point x="1496" y="797"/>
      <point x="1426" y="784"/>
      <point x="1254" y="784" type="curve" smooth="yes"/>
      <point x="1102" y="784" type="line"/>
      <point x="1102" y="1114" type="line" smooth="yes"/>
      <point x="1102" y="1280"/>
      <point x="1104" y="1354"/>
      <point x="1258" y="1358" type="curve" smooth="yes"/>
      <point x="1434" y="1362" type="line" smooth="yes"/>
      <point x="1588" y="1366"/>
      <point x="1711" y="1317"/>
      <point x="1711" y="1075" type="curve"/>
      <point x="1778" y="1075" type="line"/>
      <point x="1768" y="1434" type="line"/>
    </contour>
    <contour>
      <point x="924" y="530" type="line"/>
      <point x="483" y="530" type="line"/>
      <point x="924" y="1191" type="line"/>
    </contour>
  </outline>
</glyph>
<glyph name="Thorn" format="1">
  <advance width="1221"/>
  <unicode hex="00DE"/>
  <outline>
    <contour>
      <point x="414" y="1184" type="line"/>
      <point x="426" y="1104" type="line"/>
      <point x="467" y="1106"/>
      <point x="504" y="1108"/>
      <point x="555" y="1108" type="curve" smooth="yes"/>
      <point x="828" y="1108"/>
      <point x="969" y="989"/>
      <point x="969" y="772" type="curve" smooth="yes"/>
      <point x="969" y="569"/>
      <point x="840" y="416"/>
      <point x="566" y="410" type="curve" smooth="yes"/>
      <point x="514" y="408"/>
      <point x="480" y="408"/>
      <point x="426" y="416" type="curve"/>
      <point x="412" y="332" type="line"/>
      <point x="439" y="330"/>
      <point x="471" y="330"/>
      <point x="486" y="330" type="curve" smooth="yes"/>
      <point x="1047" y="330"/>
      <point x="1182" y="590"/>
      <point x="1168" y="803" type="curve" smooth="yes"/>
      <point x="1151" y="1065"/>
      <point x="938" y="1186"/>
      <point x="543" y="1186" type="curve" smooth="yes"/>
    </contour>
    <component base="I"/>
  </outline>
</glyph>
<glyph name="icircumflex" format="1">
  <advance width="575"/>
  <unicode hex="00EE"/>
  <outline>
    <contour>
      <point x="295" y="1593" type="line"/>
      <point x="0" y="1268" type="line"/>
      <point x="51" y="1208" type="line"/>
      <point x="285" y="1407" type="line"/>
      <point x="289" y="1407" type="line"/>
      <point x="518" y="1194" type="line"/>
      <point x="574" y="1260" type="line"/>
      <point x="299" y="1593" type="line"/>
    </contour>
    <component base="dotlessi" xOffset="1"/>
  </outline>
</glyph>
<glyph name="lslash" format="1">
  <advance width="600"/>
  <unicode hex="0142"/>
  <outline>
    <contour>
      <point x="54" y="584" type="line"/>
      <point x="54" y="463" type="line"/>
      <point x="566" y="836" type="line"/>
      <point x="566" y="952" type="line"/>
    </contour>
    <component base="l" xOffset="40"/>
  </outline>
</glyph>
<glyph name="ogonek" format="1">
  <advance width="645"/>
  <unicode hex="02DB"/>
  <outline>
    <contour>
      <point x="319" y="-6"/>
      <point x="92" y="-145"/>
      <point x="92" y="-322" type="curve" smooth="yes"/>
      <point x="92" y="-445"/>
      <point x="178" y="-531"/>
      <point x="309" y="-531" type="curve" smooth="yes"/>
      <point x="408" y="-531"/>
      <point x="500" y="-466"/>
      <point x="553" y="-402" type="curve"/>
      <point x="518" y="-365" type="line"/>
      <point x="479" y="-398"/>
      <point x="434" y="-421"/>
      <point x="385" y="-421" type="curve" smooth="yes"/>
      <point x="317" y="-421"/>
      <point x="258" y="-367"/>
      <point x="258" y="-281" type="curve" smooth="yes"/>
      <point x="258" y="-146"/>
      <point x="383" y="-52"/>
      <point x="528" y="0" type="curve"/>
      <point x="528" y="54" type="line"/>
    </contour>
    <contour>
      <point x="527" y="-1" type="move" name="_ogonek"/>
    </contour>
  </outline>
</glyph>
<glyph name="hungarumlaut" format="1">
  <advance width="797"/>
  <unicode hex="02DD"/>
  <outline>
    <contour>
      <point x="702" y="1573"/>
      <point x="643" y="1567"/>
      <point x="607" y="1528" type="curve" smooth="yes"/>
      <point x="359" y="1257" type="line"/>
      <point x="398" y="1205" type="line"/>
      <point x="697" y="1410" type="line" smooth="yes"/>
      <point x="738" y="1438"/>
      <point x="759" y="1492"/>
      <point x="731" y="1532" type="curve" smooth="yes"/>
    </contour>
    <contour>
      <point x="351" y="1600"/>
      <point x="297" y="1594"/>
      <point x="262" y="1518" type="curve" smooth="yes"/>
      <point x="147" y="1256" type="line"/>
      <point x="207" y="1218" type="line"/>
      <point x="384" y="1438" type="line" smooth="yes"/>
      <point x="434" y="1501"/>
      <point x="422" y="1550"/>
      <point x="389" y="1573" type="curve" smooth="yes"/>
    </contour>
    <contour>
      <point x="370" y="1024" type="move" name="_top"/>
    </contour>
  </outline>
</glyph>
<glyph name="Iishort-cy" format="1">
  <advance width="1618"/>
  <unicode hex="0419"/>
  <outline>
    <contour>
      <point x="971" y="1839"/>
      <point x="951" y="1777"/>
      <point x="951" y="1746" type="curve" smooth="yes"/>
      <point x="951" y="1720"/>
      <point x="958" y="1688"/>
      <point x="973" y="1663" type="curve"/>
      <point x="935" y="1624"/>
      <point x="890" y="1612"/>
      <point x="819" y="1612" type="curve" smooth="yes"/>
      <point x="748" y="1612"/>
      <point x="703" y="1624"/>
      <point x="665" y="1663" type="curve"/>
      <point x="680" y="1688"/>
      <point x="687" y="1720"/>
      <point x="687" y="1746" type="curve" smooth="yes"/>
      <point x="687" y="1777"/>
      <point x="667" y="1839"/>
      <point x="592" y="1837" type="curve" smooth="yes"/>
      <point x="536" y="1836"/>
      <point x="503" y="1786"/>
      <point x="503" y="1732" type="curve" smooth="yes"/>
      <point x="503" y="1612"/>
      <point x="646" y="1537"/>
      <point x="819" y="1537" type="curve" smooth="yes"/>
      <point x="992" y="1537"/>
      <point x="1135" y="1612"/>
      <point x="1135" y="1732" type="curve" smooth="yes"/>
      <point x="1135" y="1786"/>
      <point x="1102" y="1836"/>
      <point x="1046" y="1837" type="curve" smooth="yes"/>
    </contour>
    <component base="Ii-cy"/>
  </outline>
</glyph>
<glyph name="Sha-cy" format="1">
  <advance width="2058"/>
  <unicode hex="0428"/>
  <outline>
    <contour>
      <point x="1504" y="1434" type="line"/>
      <point x="1504" y="1344" type="line"/>
      <point x="1632" y="1352" type="line"/>
      <point x="1627" y="1317"/>
      <point x="1625" y="1264"/>
      <point x="1625" y="1190" type="curve" smooth="yes"/>
      <point x="1625" y="90" type="line"/>
      <point x="432" y="81" type="line"/>
      <point x="432" y="1115" type="line" smooth="yes"/>
      <point x="432" y="1260"/>
      <point x="420" y="1360"/>
      <point x="574" y="1366" type="curve"/>
      <point x="574" y="1434" type="line"/>
      <point x="113" y="1434" type="line"/>
      <point x="113" y="1344" type="line"/>
      <point x="260" y="1352" type="line"/>
      <point x="256" y="1317"/>
      <point x="254" y="1264"/>
      <point x="254" y="1190" type="curve" smooth="yes"/>
      <point x="254" y="320" type="line" smooth="yes"/>
      <point x="254" y="174"/>
      <point x="266" y="74"/>
      <point x="113" y="68" type="curve"/>
      <point x="113" y="0" type="line"/>
      <point x="1945" y="0" type="line"/>
      <point x="1945" y="91" type="line"/>
      <point x="1797" y="82" type="line"/>
      <point x="1802" y="123"/>
      <point x="1804" y="174"/>
      <point x="1804" y="230" type="curve" smooth="yes"/>
      <point x="1804" y="1115" type="line" smooth="yes"/>
      <point x="1804" y="1260"/>
      <point x="1791" y="1360"/>
      <point x="1945" y="1366" type="curve"/>
      <point x="1945" y="1434" type="line"/>
    </contour>
    <contour>
      <point x="818" y="1434" type="line"/>
      <point x="818" y="1344" type="line"/>
      <point x="946" y="1352" type="line"/>
      <point x="941" y="1317"/>
      <point x="939" y="1264"/>
      <point x="939" y="1190" type="curve" smooth="yes"/>
      <point x="939" y="84" type="line"/>
      <point x="1111" y="76" type="line"/>
      <point x="1116" y="127"/>
      <point x="1118" y="174"/>
      <point x="1118" y="230" type="curve" smooth="yes"/>
      <point x="1118" y="1115" type="line" smooth="yes"/>
      <point x="1118" y="1260"/>
      <point x="1105" y="1360"/>
      <point x="1259" y="1366" type="curve"/>
      <point x="1259" y="1434" type="line"/>
    </contour>
  </outline>
</glyph>
<glyph name="Softsign-cy" format="1">
  <advance width="1259"/>
  <unicode hex="042C"/>
  <outline>
    <contour>
      <point x="113" y="1434" type="line"/>
      <point x="113" y="1343" type="line"/>
      <point x="261" y="1352" type="line"/>
      <point x="256" y="1311"/>
      <point x="254" y="1260"/>
      <point x="254" y="1204" type="curve" smooth="yes"/>
      <point x="254" y="319" type="line" smooth="yes"/>
      <point x="254.528" y="171.062"/>
      <point x="263.301" y="71.9039"/>
      <point x="113" y="68" type="curve"/>
      <point x="113" y="0" type="line"/>
      <point x="711" y="0" type="line" smooth="yes"/>
      <point x="988" y="0"/>
      <point x="1194" y="149"/>
      <point x="1194" y="437" type="curve" smooth="yes"/>
      <point x="1194" y="678"/>
      <point x="1048" y="851"/>
      <point x="598" y="839" type="curve" smooth="yes"/>
      <point x="433" y="834" type="line"/>
      <point x="433" y="1114" type="line" smooth="yes"/>
      <point x="433" y="1260"/>
      <point x="420" y="1360"/>
      <point x="574" y="1366" type="curve"/>
      <point x="574" y="1434" type="line"/>
    </contour>
    <contour>
      <point x="830" y="761"/>
      <point x="996" y="689"/>
      <point x="996" y="429" type="curve" smooth="yes"/>
      <point x="996" y="184"/>
      <point x="854" y="78"/>
      <point x="643" y="78" type="curve" smooth="yes"/>
      <point x="617" y="78"/>
      <point x="490" y="76"/>
      <point x="426" y="82" type="curve"/>
      <point x="431" y="117"/>
      <point x="433" y="168"/>
      <point x="433" y="242" type="curve" smooth="yes"/>
      <point x="433" y="755" type="line"/>
      <point x="498" y="759"/>
      <point x="562" y="761"/>
      <point x="643" y="761" type="curve" smooth="yes"/>
    </contour>
  </outline>
</glyph>
<glyph name="be-cy" format="1">
  <advance width="1115"/>
  <unicode hex="0431"/>
  <outline>
    <contour>
      <point x="884" y="1495"/>
      <point x="855" y="1479"/>
      <point x="782" y="1459" type="curve" smooth="yes"/>
      <point x="673" y="1430"/>
      <point x="566" y="1431"/>
      <point x="462" y="1391" type="curve" smooth="yes"/>
      <point x="192" y="1289"/>
      <point x="87" y="970"/>
      <point x="87" y="612" type="curve" smooth="yes"/>
      <point x="87" y="178"/>
      <point x="296" y="-31"/>
      <point x="560" y="-31" type="curve" smooth="yes"/>
      <point x="826" y="-31"/>
      <point x="1040" y="182"/>
      <point x="1040" y="511" type="curve" smooth="yes"/>
      <point x="1040" y="820"/>
      <point x="842" y="986"/>
      <point x="586" y="986" type="curve" smooth="yes"/>
      <point x="387" y="986"/>
      <point x="255" y="881"/>
      <point x="194" y="721" type="curve"/>
      <point x="180" y="721" type="line"/>
      <point x="178" y="955"/>
      <point x="267" y="1154"/>
      <point x="475" y="1217" type="curve" smooth="yes"/>
      <point x="571" y="1246"/>
      <point x="688" y="1245"/>
      <point x="800" y="1284" type="curve" smooth="yes"/>
      <point x="942" y="1333"/>
      <point x="949" y="1401"/>
      <point x="978" y="1533" type="curve"/>
      <point x="907" y="1557" type="line"/>
    </contour>
    <contour>
      <point x="757" y="911"/>
      <point x="841" y="678"/>
      <point x="841" y="454" type="curve" smooth="yes"/>
      <point x="841" y="247"/>
      <point x="769" y="46.9999"/>
      <point x="568" y="47" type="curve" smooth="yes"/>
      <point x="378" y="46.9999"/>
      <point x="279" y="226"/>
      <point x="279" y="520" type="curve" smooth="yes"/>
      <point x="279" y="723"/>
      <point x="364" y="911"/>
      <point x="549" y="911" type="curve" smooth="yes"/>
    </contour>
  </outline>
</glyph>
<glyph name="el-cy" format="1">
  <advance width="1212"/>
  <unicode hex="043B"/>
  <outline>
    <contour>
      <point x="240" y="1024" type="line"/>
      <point x="240" y="935" type="line"/>
      <point x="462" y="946" type="line"/>
      <point x="833" y="946" type="line"/>
      <point x="825" y="899"/>
      <point x="825" y="862"/>
      <point x="825" y="807" type="curve" smooth="yes"/>
      <point x="825" y="311" type="line" smooth="yes"/>
      <point x="822" y="164"/>
      <point x="826" y="61"/>
      <point x="701" y="61" type="curve"/>
      <point x="701" y="0" type="line"/>
      <point x="1119" y="0" type="line"/>
      <point x="1119" y="84" type="line"/>
      <point x="990" y="78" type="line"/>
      <point x="998" y="125"/>
      <point x="998" y="162"/>
      <point x="1001" y="217" type="curve"/>
      <point x="1001" y="713" type="line" smooth="yes"/>
      <point x="1002" y="860"/>
      <point x="997" y="963"/>
      <point x="1122" y="963" type="curve"/>
      <point x="1122" y="1024" type="line"/>
    </contour>
    <contour>
      <point x="435" y="1007" type="line"/>
      <point x="408" y="317"/>
      <point x="295" y="82"/>
      <point x="211" y="82" type="curve" smooth="yes"/>
      <point x="204" y="82"/>
      <point x="198" y="83"/>
      <point x="192" y="86" type="curve"/>
      <point x="194" y="95"/>
      <point x="197" y="109"/>
      <point x="197" y="117" type="curve" smooth="yes"/>
      <point x="196" y="149"/>
      <point x="171" y="191"/>
      <point x="105" y="190" type="curve" smooth="yes"/>
      <point x="45" y="189"/>
      <point x="15" y="146"/>
      <point x="15" y="85" type="curve" smooth="yes"/>
      <point x="15" y="20"/>
      <point x="70" y="-23"/>
      <point x="168" y="-23" type="curve" smooth="yes"/>
      <point x="428" y="-23"/>
      <point x="512" y="396"/>
      <point x="532" y="785" type="curve" smooth="yes"/>
      <point x="532" y="857"/>
      <point x="534" y="923"/>
      <point x="537" y="1007" type="curve"/>
    </contour>
    <contour>
      <point x="485" y="966" type="line"/>
      <point x="480" y="785" type="line"/>
      <point x="532" y="785" type="line"/>
      <point x="532" y="883"/>
      <point x="559" y="946"/>
      <point x="653" y="946" type="curve"/>
      <point x="653" y="977" type="line"/>
    </contour>
  </outline>
</glyph>
<glyph name="ef-cy" format="1">
  <advance width="1596"/>
  <unicode hex="0444"/>
  <outline>
    <contour>
      <point x="827" y="1546" type="line"/>
      <point x="796" y="1518"/>
      <point x="751" y="1491"/>
      <point x="571" y="1491" type="curve"/>
      <point x="571" y="1405" type="line"/>
      <point x="716" y="1413" type="line"/>
      <point x="710" y="1358"/>
      <point x="710" y="1323"/>
      <point x="710" y="1280" type="curve" smooth="yes"/>
      <point x="710" y="-211" type="line" smooth="yes"/>
      <point x="705" y="-358"/>
      <point x="711" y="-461"/>
      <point x="586" y="-461" type="curve"/>
      <point x="586" y="-522" type="line"/>
      <point x="1005" y="-522" type="line"/>
      <point x="1005" y="-438" type="line"/>
      <point x="876" y="-444" type="line"/>
      <point x="884" y="-397"/>
      <point x="884" y="-360"/>
      <point x="884" y="-305" type="curve" smooth="yes"/>
      <point x="884" y="1546" type="line"/>
    </contour>
    <contour>
      <point x="298" y="1057"/>
      <point x="84" y="825"/>
      <point x="84" y="476" type="curve" smooth="yes"/>
      <point x="84" y="159"/>
      <point x="296" y="-33"/>
      <point x="534" y="-33" type="curve" smooth="yes"/>
      <point x="653" y="-33"/>
      <point x="780" y="22"/>
      <point x="863" y="100" type="curve"/>
      <point x="859" y="193" type="line"/>
      <point x="802" y="127"/>
      <point x="708" y="62"/>
      <point x="607" y="62" type="curve" smooth="yes"/>
      <point x="384" y="62"/>
      <point x="290" y="286"/>
      <point x="290" y="507" type="curve" smooth="yes"/>
      <point x="290" y="778"/>
      <point x="384" y="972"/>
      <point x="578" y="972" type="curve" smooth="yes"/>
      <point x="673" y="972"/>
      <point x="737" y="932"/>
      <point x="808" y="875" type="curve"/>
      <point x="809" y="971" type="line"/>
      <point x="737" y="1022"/>
      <point x="646" y="1057"/>
      <point x="574" y="1057" type="curve" smooth="yes"/>
    </contour>
    <contour>
      <point x="941" y="1057"/>
      <point x="880" y="1031"/>
      <point x="798" y="967" type="curve"/>
      <point x="798" y="900" type="line"/>
      <point x="858" y="942"/>
      <point x="914" y="962"/>
      <point x="989" y="962" type="curve" smooth="yes"/>
      <point x="1212" y="962"/>
      <point x="1306" y="738"/>
      <point x="1306" y="516" type="curve" smooth="yes"/>
      <point x="1306" y="246"/>
      <point x="1214" y="49"/>
      <point x="1036" y="49" type="curve" smooth="yes"/>
      <point x="926" y="49"/>
      <point x="884" y="76"/>
      <point x="824" y="144" type="curve"/>
      <point x="823" y="48" type="line"/>
      <point x="891" y="-8"/>
      <point x="936" y="-33"/>
      <point x="1030" y="-33" type="curve" smooth="yes"/>
      <point x="1293" y="-33"/>
      <point x="1512" y="199"/>
      <point x="1512" y="548" type="curve" smooth="yes"/>
      <point x="1512" y="865"/>
      <point x="1300" y="1057"/>
      <point x="1062" y="1057" type="curve" smooth="yes"/>
    </contour>
  </outline>
</glyph>
<glyph name="sha-cy" format="1">
  <advance width="1699"/>
  <unicode hex="0448"/>
  <outline>
    <contour>
      <point x="1191" y="1024" type="line"/>
      <point x="1191" y="940" type="line"/>
      <point x="1320" y="946" type="line"/>
      <point x="1312" y="899"/>
      <point x="1312" y="862"/>
      <point x="1312" y="807" type="curve" smooth="yes"/>
      <point x="1312" y="311" type="line" smooth="yes"/>
      <point x="1308" y="164"/>
      <point x="1313" y="84"/>
      <point x="1188" y="82" type="curve" smooth="yes"/>
      <point x="937" y="78" type="line"/>
      <point x="945" y="125"/>
      <point x="945" y="162"/>
      <point x="945" y="217" type="curve" smooth="yes"/>
      <point x="945" y="713" type="line" smooth="yes"/>
      <point x="948" y="860"/>
      <point x="944" y="963"/>
      <point x="1069" y="963" type="curve"/>
      <point x="1069" y="1024" type="line"/>
      <point x="651" y="1024" type="line"/>
      <point x="651" y="940" type="line"/>
      <point x="780" y="946" type="line"/>
      <point x="772" y="899"/>
      <point x="772" y="862"/>
      <point x="772" y="807" type="curve" smooth="yes"/>
      <point x="772" y="311" type="line" smooth="yes"/>
      <point x="768" y="164"/>
      <point x="773" y="84"/>
      <point x="648" y="82" type="curve" smooth="yes"/>
      <point x="379" y="78" type="line"/>
      <point x="387" y="125"/>
      <point x="387" y="162"/>
      <point x="387" y="217" type="curve" smooth="yes"/>
      <point x="387" y="713" type="line" smooth="yes"/>
      <point x="390" y="860"/>
      <point x="386" y="963"/>
      <point x="511" y="963" type="curve"/>
      <point x="511" y="1024" type="line"/>
      <point x="93" y="1024" type="line"/>
      <point x="93" y="940" type="line"/>
      <point x="222" y="946" type="line"/>
      <point x="214" y="899"/>
      <point x="214" y="862"/>
      <point x="214" y="807" type="curve" smooth="yes"/>
      <point x="214" y="311" type="line" smooth="yes"/>
      <point x="210" y="164"/>
      <point x="215" y="61"/>
      <point x="90" y="61" type="curve"/>
      <point x="90" y="0" type="line"/>
      <point x="1606" y="0" type="line"/>
      <point x="1606" y="84" type="line"/>
      <point x="1477" y="78" type="line"/>
      <point x="1485" y="125"/>
      <point x="1485" y="162"/>
      <point x="1487" y="217" type="curve"/>
      <point x="1487" y="713" type="line" smooth="yes"/>
      <point x="1488" y="860"/>
      <point x="1484" y="963"/>
      <point x="1609" y="963" type="curve"/>
      <point x="1609" y="1024" type="line"/>
    </contour>
  </outline>
</glyph>
<glyph name="hardsign-cy" format="1">
  <advance width="1194"/>
  <unicode hex="044A"/>
  <outline>
    <contour>
      <point x="54" y="1024" type="line"/>
      <point x="45" y="715" type="line"/>
      <point x="123" y="715" type="line"/>
      <point x="123" y="887"/>
      <point x="171" y="935"/>
      <point x="280" y="937" type="curve" smooth="yes"/>
      <point x="397" y="939" type="line"/>
      <point x="389" y="892"/>
      <point x="389" y="862"/>
      <point x="389" y="807" type="curve" smooth="yes"/>
      <point x="389" y="236" type="line" smooth="yes"/>
      <point x="389" y="128"/>
      <point x="366" y="64"/>
      <point x="266" y="61" type="curve"/>
      <point x="266" y="0" type="line"/>
      <point x="794" y="0" type="line" smooth="yes"/>
      <point x="973" y="0"/>
      <point x="1129" y="107"/>
      <point x="1129" y="304" type="curve" smooth="yes"/>
      <point x="1129" y="466"/>
      <point x="1023" y="605"/>
      <point x="692" y="597" type="curve" smooth="yes"/>
      <point x="565" y="594" type="line"/>
      <point x="565" y="783" type="line" smooth="yes"/>
      <point x="566" y="860"/>
      <point x="561" y="963"/>
      <point x="686" y="963" type="curve"/>
      <point x="686" y="1024" type="line"/>
    </contour>
    <contour>
      <point x="863" y="521"/>
      <point x="948" y="439"/>
      <point x="948" y="298" type="curve" smooth="yes"/>
      <point x="948" y="142"/>
      <point x="846" y="81"/>
      <point x="720" y="81" type="curve" smooth="yes"/>
      <point x="701" y="81"/>
      <point x="606" y="79"/>
      <point x="560" y="84" type="curve"/>
      <point x="563" y="109"/>
      <point x="565" y="145"/>
      <point x="565" y="198" type="curve" smooth="yes"/>
      <point x="565" y="516" type="line"/>
      <point x="611" y="519"/>
      <point x="662" y="521"/>
      <point x="720" y="521" type="curve" smooth="yes"/>
    </contour>
  </outline>
</glyph>
<glyph name="ereversed-cy" format="1">
  <advance width="1090"/>
  <unicode hex="044D"/>
  <outline>
    <contour>
      <point x="394" y="1057"/>
      <point x="311" y="1024"/>
      <point x="213" y="962" type="curve"/>
      <point x="218" y="1047" type="line"/>
      <point x="132" y="1047" type="line"/>
      <point x="132" y="688" type="line"/>
      <point x="196" y="688" type="line"/>
      <point x="206" y="829"/>
      <point x="306" y="962"/>
      <point x="488" y="962" type="curve" smooth="yes"/>
      <point x="701" y="962"/>
      <point x="797" y="785"/>
      <point x="797" y="480" type="curve" smooth="yes"/>
      <point x="797" y="196"/>
      <point x="654" y="43"/>
      <point x="467" y="43" type="curve" smooth="yes"/>
      <point x="410" y="43"/>
      <point x="288" y="57"/>
      <point x="252" y="153" type="curve"/>
      <point x="276" y="178"/>
      <point x="283" y="209"/>
      <point x="283" y="236" type="curve" smooth="yes"/>
      <point x="283" y="271"/>
      <point x="259" y="330"/>
      <point x="188" y="328" type="curve" smooth="yes"/>
      <point x="127" y="327"/>
      <point x="93" y="278"/>
      <point x="93" y="220" type="curve" smooth="yes"/>
      <point x="93" y="87"/>
      <point x="244" y="-33"/>
      <point x="472" y="-33" type="curve" smooth="yes"/>
      <point x="789" y="-33"/>
      <point x="1006" y="247"/>
      <point x="1006" y="530" type="curve" smooth="yes"/>
      <point x="1006" y="863"/>
      <point x="777" y="1057"/>
      <point x="505" y="1057" type="curve" smooth="yes"/>
    </contour>
    <contour>
      <point x="330" y="564" type="line"/>
      <point x="330" y="480" type="line"/>
      <point x="835" y="484" type="line"/>
      <point x="835" y="564" type="line"/>
    </contour>
  </outline>
</glyph>
<glyph name="iu-cy" format="1">
  <advance width="1667"/>
  <unicode hex="044E"/>
  <outline>
    <contour>
      <point x="801" y="1057"/>
      <point x="578" y="811"/>
      <point x="578" y="487" type="curve" smooth="yes"/>
      <point x="578" y="184"/>
      <point x="805" y="-33"/>
      <point x="1067" y="-33" type="curve" smooth="yes"/>
      <point x="1358" y="-33"/>
      <point x="1583" y="219"/>
      <point x="1583" y="537" type="curve" smooth="yes"/>
      <point x="1583" y="834"/>
      <point x="1354" y="1057"/>
      <point x="1067" y="1057" type="curve" smooth="yes"/>
    </contour>
    <contour>
      <point x="93" y="1024" type="line"/>
      <point x="93" y="940" type="line"/>
      <point x="222" y="946" type="line"/>
      <point x="214" y="899"/>
      <point x="214" y="862"/>
      <point x="214" y="807" type="curve" smooth="yes"/>
      <point x="212" y="311" type="line" smooth="yes"/>
      <point x="211" y="164"/>
      <point x="215" y="61"/>
      <point x="90" y="61" type="curve"/>
      <point x="90" y="0" type="line"/>
      <point x="508" y="0" type="line"/>
      <point x="508" y="84" type="line"/>
      <point x="379" y="78" type="line"/>
      <point x="387" y="125"/>
      <point x="387" y="162"/>
      <point x="387" y="217" type="curve" smooth="yes"/>
      <point x="390" y="713" type="line" smooth="yes"/>
      <point x="391" y="860"/>
      <point x="386" y="963"/>
      <point x="511" y="963" type="curve"/>
      <point x="511" y="1024" type="line"/>
    </contour>
    <contour>
      <point x="316" y="566" type="line"/>
      <point x="316" y="478" type="line"/>
      <point x="659" y="486" type="line"/>
      <point x="659" y="566" type="line"/>
    </contour>
    <contour>
      <point x="1286" y="979"/>
      <point x="1374" y="723"/>
      <point x="1374" y="477" type="curve" smooth="yes"/>
      <point x="1374" y="260"/>
      <point x="1298" y="49"/>
      <point x="1083" y="49" type="curve" smooth="yes"/>
      <point x="891" y="49"/>
      <point x="787" y="293"/>
      <point x="787" y="547" type="curve" smooth="yes"/>
      <point x="787" y="770"/>
      <point x="877" y="979"/>
      <point x="1067" y="979" type="curve" smooth="yes"/>
    </contour>
  </outline>
</glyph>
<glyph name="ia-cy" format="1">
  <advance width="1114"/>
  <unicode hex="044F"/>
  <outline>
    <contour>
      <point x="506" y="1024" type="line" smooth="yes"/>
      <point x="327" y="1024"/>
      <point x="171" y="917"/>
      <point x="171" y="720" type="curve" smooth="yes"/>
      <point x="171" y="557"/>
      <point x="277" y="425"/>
      <point x="608" y="425" type="curve"/>
      <point x="608" y="408" type="line"/>
      <point x="725" y="410" type="line"/>
      <point x="725" y="244" type="line" smooth="yes"/>
      <point x="725" y="145"/>
      <point x="711" y="61"/>
      <point x="604" y="61" type="curve"/>
      <point x="604" y="0" type="line"/>
      <point x="1022" y="0" type="line"/>
      <point x="1022" y="84" type="line"/>
      <point x="893" y="78" type="line"/>
      <point x="901" y="125"/>
      <point x="901" y="162"/>
      <point x="901" y="217" type="curve" smooth="yes"/>
      <point x="901" y="788" type="line" smooth="yes"/>
      <point x="901" y="896"/>
      <point x="924" y="960"/>
      <point x="1024" y="963" type="curve"/>
      <point x="1024" y="1024" type="line"/>
    </contour>
    <contour>
      <point x="484" y="444" type="line"/>
      <point x="431" y="437"/>
      <point x="395" y="422"/>
      <point x="356" y="374" type="curve" smooth="yes"/>
      <point x="283" y="283" type="line" smooth="yes"/>
      <point x="168" y="140"/>
      <point x="129" y="61"/>
      <point x="35" y="61" type="curve"/>
      <point x="35" y="0" type="line"/>
      <point x="196" y="0" type="line" smooth="yes"/>
      <point x="271" y="0"/>
      <point x="352" y="97"/>
      <point x="422" y="193" type="curve" smooth="yes"/>
      <point x="459" y="244"/>
      <point x="531" y="356"/>
      <point x="584" y="407" type="curve"/>
      <point x="683" y="410" type="line"/>
      <point x="683" y="450" type="line"/>
    </contour>
    <contour>
      <point x="599" y="943"/>
      <point x="684" y="945"/>
      <point x="730" y="940" type="curve"/>
      <point x="727" y="915"/>
      <point x="725" y="879"/>
      <point x="725" y="826" type="curve" smooth="yes"/>
      <point x="725" y="488" type="line"/>
      <point x="679" y="485"/>
      <point x="638" y="483"/>
      <point x="580" y="483" type="curve" smooth="yes"/>
      <point x="437" y="483"/>
      <point x="352" y="592"/>
      <point x="352" y="726" type="curve" smooth="yes"/>
      <point x="352" y="882"/>
      <point x="454" y="943"/>
      <point x="580" y="943" type="curve" smooth="yes"/>
    </contour>
  </outline>
</glyph>
<glyph name="nje-cy" format="1">
  <advance width="1622"/>
  <unicode hex="045A"/>
  <outline>
    <contour>
      <point x="736" y="1024" type="line"/>
      <point x="736" y="940" type="line"/>
      <point x="865" y="946" type="line"/>
      <point x="857" y="899"/>
      <point x="857" y="862"/>
      <point x="857" y="807" type="curve" smooth="yes"/>
      <point x="857" y="236" type="line" smooth="yes"/>
      <point x="857" y="128"/>
      <point x="834" y="64"/>
      <point x="734" y="61" type="curve"/>
      <point x="734" y="0" type="line"/>
      <point x="1222" y="0" type="line" smooth="yes"/>
      <point x="1401" y="0"/>
      <point x="1557" y="107"/>
      <point x="1557" y="304" type="curve" smooth="yes"/>
      <point x="1557" y="466"/>
      <point x="1451" y="608"/>
      <point x="1120" y="597" type="curve" smooth="yes"/>
      <point x="1033" y="594" type="line"/>
      <point x="1033" y="713" type="line" smooth="yes"/>
      <point x="1034" y="860"/>
      <point x="1029" y="963"/>
      <point x="1154" y="963" type="curve"/>
      <point x="1154" y="1024" type="line"/>
    </contour>
    <contour>
      <point x="93" y="1024" type="line"/>
      <point x="93" y="940" type="line"/>
      <point x="222" y="946" type="line"/>
      <point x="214" y="899"/>
      <point x="214" y="862"/>
      <point x="214" y="807" type="curve" smooth="yes"/>
      <point x="212" y="311" type="line" smooth="yes"/>
      <point x="211" y="164"/>
      <point x="215" y="61"/>
      <point x="90" y="61" type="curve"/>
      <point x="90" y="0" type="line"/>
      <point x="508" y="0" type="line"/>
      <point x="508" y="84" type="line"/>
      <point x="379" y="78" type="line"/>
      <point x="387" y="125"/>
      <point x="387" y="162"/>
      <point x="387" y="217" type="curve" smooth="yes"/>
      <point x="390" y="713" type="line" smooth="yes"/>
      <point x="391" y="860"/>
      <point x="386" y="963"/>
      <point x="511" y="963" type="curve"/>
      <point x="511" y="1024" type="line"/>
    </contour>
    <contour>
      <point x="316" y="594" type="line"/>
      <point x="316" y="506" type="line"/>
      <point x="929" y="514" type="line"/>
      <point x="929" y="594" type="line"/>
    </contour>
    <contour>
      <point x="1307" y="521"/>
      <point x="1376" y="439"/>
      <point x="1376" y="298" type="curve" smooth="yes"/>
      <point x="1376" y="142"/>
      <point x="1274" y="81"/>
      <point x="1148" y="81" type="curve" smooth="yes"/>
      <point x="1129" y="81"/>
      <point x="1074" y="79"/>
      <point x="1028" y="84" type="curve"/>
      <point x="1031" y="109"/>
      <point x="1033" y="145"/>
      <point x="1033" y="198" type="curve" smooth="yes"/>
      <point x="1033" y="516" type="line"/>
      <point x="1080" y="520"/>
      <point x="1090" y="521"/>
      <point x="1148" y="521" type="curve" smooth="yes"/>
    </contour>
  </outline>
</glyph>
<glyph name="Ustraitstroke-cy" format="1">
  <advance width="1298"/>
  <unicode hex="04B0"/>
  <outline>
    <contour>
      <point x="275" y="564" type="line"/>
      <point x="275" y="451" type="line"/>
      <point x="1058" y="459" type="line"/>
      <point x="1058" y="564" type="line"/>
    </contour>
    <component base="Y"/>
  </outline>
</glyph>
<glyph name="dagger" format="1">
  <advance width="1049"/>
  <unicode hex="2020"/>
  <outline>
    <contour>
      <point x="451" y="1556"/>
      <point x="426" y="1472"/>
      <point x="432" y="1407" type="curve" smooth="yes"/>
      <point x="446" y="1255"/>
      <point x="483" y="1067"/>
      <point x="505" y="944" type="curve"/>
      <point x="405" y="965"/>
      <point x="303" y="986"/>
      <point x="203" y="999" type="curve" smooth="yes"/>
      <point x="137" y="1008"/>
      <point x="53" y="1004"/>
      <point x="53" y="928" type="curve" smooth="yes"/>
      <point x="53" y="852"/>
      <point x="137" y="848"/>
      <point x="203" y="856" type="curve" smooth="yes"/>
      <point x="302" y="869"/>
      <point x="404" y="890"/>
      <point x="504" y="911" type="curve"/>
      <point x="473" y="760"/>
      <point x="446" y="648"/>
      <point x="416" y="573" type="curve"/>
      <point x="463" y="213"/>
      <point x="473" y="-176"/>
      <point x="496" y="-555" type="curve"/>
      <point x="553" y="-555" type="line"/>
      <point x="576" y="-176"/>
      <point x="586" y="213"/>
      <point x="633" y="573" type="curve"/>
      <point x="603" y="648"/>
      <point x="576" y="759"/>
      <point x="544" y="910" type="curve"/>
      <point x="645" y="890"/>
      <point x="747" y="869"/>
      <point x="846" y="856" type="curve" smooth="yes"/>
      <point x="912" y="848"/>
      <point x="996" y="852"/>
      <point x="996" y="928" type="curve" smooth="yes"/>
      <point x="996" y="1004"/>
      <point x="912" y="1008"/>
      <point x="846" y="999" type="curve" smooth="yes"/>
      <point x="746" y="986"/>
      <point x="644" y="965"/>
      <point x="543" y="944" type="curve"/>
      <point x="566" y="1067"/>
      <point x="602" y="1255"/>
      <point x="617" y="1407" type="curve" smooth="yes"/>
      <point x="623" y="1472"/>
      <point x="602" y="1556"/>
      <point x="527" y="1556" type="curve" smooth="yes"/>
    </contour>
  </outline>
</glyph>
<glyph name="bullet" format="1">
  <advance width="821"/>
  <unicode hex="2022"/>
  <outline>
    <contour>
      <point x="239" y="1069"/>
      <point x="102" y="936"/>
      <point x="102" y="766" type="curve" smooth="yes"/>
      <point x="102" y="596"/>
      <point x="239" y="463"/>
      <point x="409" y="463" type="curve" smooth="yes"/>
      <point x="579" y="463"/>
      <point x="719" y="596"/>
      <point x="719" y="766" type="curve" smooth="yes"/>
      <point x="719" y="936"/>
      <point x="579" y="1069"/>
      <point x="409" y="1069" type="curve" smooth="yes"/>
    </contour>
  </outline>
</glyph>
<glyph name="guilsinglright" format="1">
  <advance width="784"/>
  <unicode hex="203A"/>
  <outline>
    <contour>
      <point x="98" y="1059" type="line"/>
      <point x="498" y="573" type="line"/>
      <point x="498" y="569" type="line"/>
      <point x="94" y="51" type="line"/>
      <point x="158" y="-14" type="line"/>
      <point x="719" y="561" type="line"/>
      <point x="719" y="569" type="line"/>
      <point x="164" y="1124" type="line"/>
    </contour>
  </outline>
</glyph>
<glyph name="fraction" format="1">
  <advance width="975"/>
  <unicode hex="2044"/>
  <outline>
    <contour>
      <point x="-37" y="20" type="line"/>
      <point x="40" y="-33" type="line"/>
      <point x="1009" y="1402" type="line"/>
      <point x="919" y="1467" type="line"/>
    </contour>
  </outline>
</glyph>
<glyph name="uni20BA" format="1">
  <advance width="1101"/>
  <unicode hex="20BA"/>
  <outline>
    <contour>
      <point x="1036" y="682"/>
      <point x="992" y="747"/>
      <point x="904" y="747" type="curve" smooth="yes"/>
      <point x="833" y="747"/>
      <point x="797" y="701"/>
      <point x="797" y="648" type="curve" smooth="yes"/>
      <point x="797" y="592"/>
      <point x="841" y="552"/>
      <point x="899" y="549" type="curve"/>
      <point x="906" y="272"/>
      <point x="721" y="76"/>
      <point x="456" y="76" type="curve"/>
      <point x="461" y="111"/>
      <point x="463" y="162"/>
      <point x="463" y="236" type="curve" smooth="yes"/>
      <point x="463" y="793" type="line"/>
      <point x="861" y="936" type="line"/>
      <point x="861" y="1034" type="line"/>
      <point x="463" y="891" type="line"/>
      <point x="463" y="974" type="line"/>
      <point x="861" y="1117" type="line"/>
      <point x="861" y="1215" type="line"/>
      <point x="463" y="1072" type="line"/>
      <point x="463" y="1114" type="line" smooth="yes"/>
      <point x="463" y="1260"/>
      <point x="450" y="1360"/>
      <point x="604" y="1366" type="curve"/>
      <point x="604" y="1434" type="line"/>
      <point x="143" y="1434" type="line"/>
      <point x="143" y="1343" type="line"/>
      <point x="291" y="1352" type="line"/>
      <point x="286" y="1311"/>
      <point x="284" y="1260"/>
      <point x="284" y="1204" type="curve" smooth="yes"/>
      <point x="284" y="1008" type="line"/>
      <point x="10" y="910" type="line"/>
      <point x="10" y="812" type="line"/>
      <point x="284" y="910" type="line"/>
      <point x="284" y="827" type="line"/>
      <point x="10" y="729" type="line"/>
      <point x="10" y="631" type="line"/>
      <point x="284" y="729" type="line"/>
      <point x="284" y="319" type="line" smooth="yes"/>
      <point x="284" y="174"/>
      <point x="297" y="74"/>
      <point x="143" y="68" type="curve"/>
      <point x="143" y="0" type="line"/>
      <point x="409" y="0" type="line" smooth="yes"/>
      <point x="825" y="0"/>
      <point x="1036" y="309"/>
      <point x="1036" y="579" type="curve" smooth="yes"/>
    </contour>
  </outline>
</glyph>
<glyph name="uni2113" format="1">
  <advance width="907"/>
  <unicode hex="2113"/>
  <outline>
    <contour>
      <point x="351" y="1556"/>
      <point x="209" y="1416"/>
      <point x="209" y="1111" type="curve" smooth="yes"/>
      <point x="209" y="406" type="line" smooth="yes"/>
      <point x="209" y="293"/>
      <point x="218" y="215"/>
      <point x="236" y="169" type="curve" smooth="yes"/>
      <point x="282" y="46"/>
      <point x="397" y="-33"/>
      <point x="529" y="-33" type="curve" smooth="yes"/>
      <point x="712" y="-33"/>
      <point x="836" y="119"/>
      <point x="887" y="316" type="curve"/>
      <point x="830" y="328" type="line"/>
      <point x="764" y="120"/>
      <point x="672" y="46"/>
      <point x="577" y="46" type="curve" smooth="yes"/>
      <point x="464" y="46"/>
      <point x="385" y="117"/>
      <point x="385" y="335" type="curve" smooth="yes"/>
      <point x="385" y="1190" type="line" smooth="yes"/>
      <point x="385" y="1420"/>
      <point x="457" y="1483"/>
      <point x="541" y="1483" type="curve" smooth="yes"/>
      <point x="615" y="1483"/>
      <point x="675" y="1434"/>
      <point x="675" y="1296" type="curve" smooth="yes"/>
      <point x="675" y="1172"/>
      <point x="573" y="997"/>
      <point x="370" y="774" type="curve"/>
      <point x="371" y="682" type="line"/>
      <point x="529" y="859"/>
      <point x="634" y="995"/>
      <point x="683" y="1088" type="curve" smooth="yes"/>
      <point x="732" y="1178"/>
      <point x="755" y="1261"/>
      <point x="755" y="1337" type="curve" smooth="yes"/>
      <point x="755" y="1469"/>
      <point x="672" y="1556"/>
      <point x="533" y="1556" type="curve" smooth="yes"/>
    </contour>
    <contour>
      <point x="-20" y="366" type="line"/>
      <point x="22" y="326" type="line"/>
      <point x="219" y="521" type="line"/>
      <point x="215" y="603" type="line"/>
    </contour>
  </outline>
</glyph>
<glyph name="uni2206" format="1">
  <advance width="1430"/>
  <unicode hex="2206"/>
  <outline>
    <contour>
      <point x="617" y="1467" type="line"/>
      <point x="57" y="0" type="line"/>
      <point x="1374" y="0" type="line"/>
      <point x="780" y="1467" type="line"/>
    </contour>
    <contour>
      <point x="1147" y="118" type="line"/>
      <point x="226" y="124" type="line"/>
      <point x="673" y="1334" type="line"/>
    </contour>
  </outline>
</glyph>
<glyph name="radical" format="1">
  <advance width="1726"/>
  <unicode hex="221A"/>
  <outline>
    <contour>
      <point x="1149" y="1765" type="line"/>
      <point x="707" y="253" type="line"/>
      <point x="405" y="1024" type="line"/>
      <point x="4" y="1024" type="line"/>
      <point x="4" y="952" type="line"/>
      <point x="250" y="946" type="line"/>
      <point x="257" y="913"/>
      <point x="275" y="864"/>
      <point x="309" y="780" type="curve" smooth="yes"/>
      <point x="629" y="-6" type="line"/>
      <point x="731" y="-6" type="line"/>
      <point x="1231" y="1688" type="line"/>
      <point x="1773" y="1681" type="line"/>
      <point x="1773" y="1765" type="line"/>
    </contour>
  </outline>
</glyph>
<glyph name="lozenge" format="1">
  <advance width="997"/>
  <unicode hex="25CA"/>
  <outline>
    <contour>
      <point x="482" y="1556" type="line"/>
      <point x="74" y="774" type="line"/>
      <point x="74" y="720" type="line"/>
      <point x="472" y="-34" type="line"/>
      <point x="525" y="-34" type="line"/>
      <point x="922" y="735" type="line"/>
      <point x="922" y="788" type="line"/>
      <point x="535" y="1556" type="line"/>
    </contour>
    <contour>
      <point x="806" y="759" type="line"/>
      <point x="511" y="169" type="line"/>
      <point x="507" y="169" type="line"/>
      <point x="203" y="761" type="line"/>
      <point x="502" y="1364" type="line"/>
      <point x="507" y="1364" type="line"/>
    </contour>
  </outline>
</glyph>
<glyph name="fl" format="1">
  <advance width="1305"/>
  <unicode hex="FB02"/>
  <outline>
    <contour>
      <point x="371" y="1556"/>
      <point x="219" y="1395"/>
      <point x="219" y="1087" type="curve" smooth="yes"/>
      <point x="219" y="1024" type="line"/>
      <point x="51" y="1024" type="line"/>
      <point x="51" y="932" type="line"/>
      <point x="219" y="935" type="line"/>
      <point x="221" y="311" type="line" smooth="yes"/>
      <point x="221" y="164"/>
      <point x="226" y="61"/>
      <point x="101" y="61" type="curve"/>
      <point x="101" y="0" type="line"/>
      <point x="518" y="0" type="line"/>
      <point x="518" y="84" type="line"/>
      <point x="389" y="78" type="line"/>
      <point x="398" y="125"/>
      <point x="398" y="162"/>
      <point x="398" y="217" type="curve" smooth="yes"/>
      <point x="396" y="939" type="line"/>
      <point x="672" y="944" type="line"/>
      <point x="672" y="1024" type="line"/>
      <point x="396" y="1024" type="line"/>
      <point x="396" y="1180" type="line" smooth="yes"/>
      <point x="396" y="1364"/>
      <point x="451" y="1470"/>
      <point x="637" y="1470" type="curve" smooth="yes"/>
      <point x="713" y="1470"/>
      <point x="850" y="1450"/>
      <point x="938" y="1397" type="curve"/>
      <point x="938" y="311" type="line" smooth="yes"/>
      <point x="938" y="164"/>
      <point x="942" y="61"/>
      <point x="817" y="61" type="curve"/>
      <point x="817" y="0" type="line"/>
      <point x="1235" y="0" type="line"/>
      <point x="1235" y="84" type="line"/>
      <point x="1106" y="78" type="line"/>
      <point x="1114" y="125"/>
      <point x="1112" y="162"/>
      <point x="1112" y="217" type="curve" smooth="yes"/>
      <point x="1112" y="1546" type="line"/>
      <point x="1053" y="1546" type="line"/>
      <point x="914" y="1468"/>
      <point x="826" y="1556"/>
      <point x="596" y="1556" type="curve" smooth="yes"/>
    </contour>
  </outline>
</glyph>
<glyph name="Grave" format="1">
  <advance width="594"/>
  <outline>
    <contour>
      <point x="94" y="1853"/>
      <point x="68" y="1796"/>
      <point x="160" y="1739" type="curve" smooth="yes"/>
      <point x="457" y="1556" type="line"/>
      <point x="502" y="1616" type="line"/>
      <point x="244" y="1862" type="line" smooth="yes"/>
      <point x="164" y="1931"/>
      <point x="113" y="1882"/>
      <point x="106" y="1872" type="curve" smooth="yes"/>
    </contour>
    <contour>
      <point x="322" y="1434" type="move" name="_top"/>
    </contour>
  </outline>
</glyph>
<glyph name="zhe-cy.ss01" format="1">
  <advance width="1588"/>
  <outline>
    <contour>
      <point x="591" y="1024" type="line"/>
      <point x="591" y="940" type="line"/>
      <point x="720" y="946" type="line"/>
      <point x="712" y="899"/>
      <point x="712" y="862"/>
      <point x="712" y="807" type="curve" smooth="yes"/>
      <point x="710" y="311" type="line" smooth="yes"/>
      <point x="709" y="164"/>
      <point x="713" y="61"/>
      <point x="588" y="61" type="curve"/>
      <point x="588" y="0" type="line"/>
      <point x="996" y="0" type="line"/>
      <point x="996" y="84" type="line"/>
      <point x="867" y="78" type="line"/>
      <point x="875" y="125"/>
      <point x="875" y="162"/>
      <point x="875" y="217" type="curve" smooth="yes"/>
      <point x="878" y="713" type="line" smooth="yes"/>
      <point x="879" y="860"/>
      <point x="874" y="963"/>
      <point x="999" y="963" type="curve"/>
      <point x="999" y="1024" type="line"/>
    </contour>
    <contour>
      <point x="614" y="578" type="line"/>
      <point x="614" y="548" type="line"/>
      <point x="474" y="548"/>
      <point x="393" y="545"/>
      <point x="359" y="469" type="curve" smooth="yes"/>
      <point x="331" y="407"/>
      <point x="288" y="306"/>
      <point x="259" y="244" type="curve" smooth="yes"/>
      <point x="212" y="143"/>
      <point x="127" y="61"/>
      <point x="33" y="61" type="curve"/>
      <point x="33" y="0" type="line"/>
      <point x="219" y="0" type="line" smooth="yes"/>
      <point x="294" y="0"/>
      <point x="363" y="58"/>
      <point x="421" y="184" type="curve" smooth="yes"/>
      <point x="459" y="266"/>
      <point x="481" y="328"/>
      <point x="520" y="408" type="curve" smooth="yes"/>
      <point x="541" y="451"/>
      <point x="565" y="485"/>
      <point x="608" y="502" type="curve"/>
      <point x="728" y="497" type="line"/>
      <point x="728" y="578" type="line"/>
    </contour>
    <contour>
      <point x="123" y="1057"/>
      <point x="74" y="1008"/>
      <point x="74" y="938" type="curve" smooth="yes"/>
      <point x="74" y="876"/>
      <point x="110" y="830"/>
      <point x="180" y="830" type="curve" smooth="yes"/>
      <point x="238" y="830"/>
      <point x="281" y="862"/>
      <point x="281" y="936" type="curve"/>
      <point x="328" y="892"/>
      <point x="338" y="859"/>
      <point x="383" y="697" type="curve" smooth="yes"/>
      <point x="414" y="585"/>
      <point x="481" y="530"/>
      <point x="583" y="530" type="curve" smooth="yes"/>
      <point x="665" y="531" type="line"/>
      <point x="665" y="578" type="line"/>
      <point x="543" y="578"/>
      <point x="498" y="592"/>
      <point x="460" y="731" type="curve" smooth="yes"/>
      <point x="400" y="957"/>
      <point x="331" y="1057"/>
      <point x="208" y="1057" type="curve" smooth="yes"/>
    </contour>
    <contour>
      <point x="859" y="578" type="line"/>
      <point x="859" y="497" type="line"/>
      <point x="979" y="502" type="line"/>
      <point x="1022" y="485"/>
      <point x="1046" y="451"/>
      <point x="1067" y="408" type="curve" smooth="yes"/>
      <point x="1106" y="328"/>
      <point x="1128" y="266"/>
      <point x="1166" y="184" type="curve" smooth="yes"/>
      <point x="1224" y="58"/>
      <point x="1293" y="0"/>
      <point x="1368" y="0" type="curve" smooth="yes"/>
      <point x="1554" y="0" type="line"/>
      <point x="1554" y="61" type="line"/>
      <point x="1460" y="61"/>
      <point x="1375" y="143"/>
      <point x="1328" y="244" type="curve" smooth="yes"/>
      <point x="1299" y="306"/>
      <point x="1256" y="407"/>
      <point x="1228" y="469" type="curve" smooth="yes"/>
      <point x="1194" y="545"/>
      <point x="1113" y="548"/>
      <point x="973" y="548" type="curve"/>
      <point x="973" y="578" type="line"/>
    </contour>
    <contour>
      <point x="1256" y="1057"/>
      <point x="1187" y="957"/>
      <point x="1127" y="731" type="curve" smooth="yes"/>
      <point x="1089" y="592"/>
      <point x="1044" y="578"/>
      <point x="922" y="578" type="curve"/>
      <point x="922" y="531" type="line"/>
      <point x="1004" y="530" type="line" smooth="yes"/>
      <point x="1106" y="530"/>
      <point x="1173" y="585"/>
      <point x="1204" y="697" type="curve" smooth="yes"/>
      <point x="1249" y="859"/>
      <point x="1259" y="892"/>
      <point x="1306" y="936" type="curve"/>
      <point x="1306" y="862"/>
      <point x="1349" y="830"/>
      <point x="1407" y="830" type="curve" smooth="yes"/>
      <point x="1477" y="830"/>
      <point x="1513" y="876"/>
      <point x="1513" y="938" type="curve" smooth="yes"/>
      <point x="1513" y="1008"/>
      <point x="1464" y="1057"/>
      <point x="1379" y="1057" type="curve" smooth="yes"/>
    </contour>
  </outline>
</glyph>
